{
 "cells": [
  {
   "cell_type": "code",
   "execution_count": 1,
   "metadata": {},
   "outputs": [],
   "source": [
    "import mido"
   ]
  },
  {
   "cell_type": "code",
   "execution_count": 2,
   "metadata": {},
   "outputs": [],
   "source": [
    "mid = mido.MidiFile('up.mid')"
   ]
  },
  {
   "cell_type": "code",
   "execution_count": 8,
   "metadata": {},
   "outputs": [],
   "source": [
    "msg = mid.tracks[0][12]"
   ]
  },
  {
   "cell_type": "code",
   "execution_count": 31,
   "metadata": {},
   "outputs": [
    {
     "data": {
      "text/plain": [
       "<midi file 'up.mid' type 1, 2 tracks, 1643 messages>"
      ]
     },
     "execution_count": 31,
     "metadata": {},
     "output_type": "execute_result"
    }
   ],
   "source": [
    "mid"
   ]
  },
  {
   "cell_type": "code",
   "execution_count": 27,
   "metadata": {},
   "outputs": [
    {
     "name": "stdout",
     "output_type": "stream",
     "text": [
      "Track 0: \n",
      "<meta message time_signature numerator=3 denominator=4 clocks_per_click=24 notated_32nd_notes_per_beat=8 time=0>\n",
      "<meta message key_signature key='F' time=0>\n",
      "<meta message set_tempo tempo=342857 time=0>\n",
      "program_change channel=0 program=0 time=0\n",
      "control_change channel=0 control=7 value=100 time=2\n",
      "control_change channel=0 control=10 value=64 time=2\n",
      "control_change channel=0 control=91 value=30 time=2\n",
      "control_change channel=0 control=93 value=30 time=2\n",
      "note_on channel=0 note=77 velocity=80 time=5032\n",
      "note_on channel=0 note=77 velocity=0 time=239\n",
      "note_on channel=0 note=81 velocity=80 time=1\n",
      "note_on channel=0 note=81 velocity=0 time=239\n",
      "note_on channel=0 note=77 velocity=80 time=1\n",
      "note_on channel=0 note=77 velocity=0 time=239\n",
      "note_on channel=0 note=76 velocity=80 time=1\n",
      "note_on channel=0 note=76 velocity=0 time=1919\n",
      "note_on channel=0 note=77 velocity=80 time=241\n",
      "note_on channel=0 note=77 velocity=0 time=239\n",
      "note_on channel=0 note=81 velocity=80 time=1\n",
      "note_on channel=0 note=81 velocity=0 time=239\n",
      "note_on channel=0 note=76 velocity=80 time=1\n",
      "note_on channel=0 note=76 velocity=0 time=239\n",
      "note_on channel=0 note=74 velocity=80 time=1\n",
      "note_on channel=0 note=74 velocity=0 time=479\n",
      "note_on channel=0 note=74 velocity=80 time=241\n",
      "note_on channel=0 note=74 velocity=0 time=239\n",
      "note_on channel=0 note=77 velocity=80 time=1\n",
      "note_on channel=0 note=77 velocity=0 time=239\n",
      "note_on channel=0 note=74 velocity=80 time=1\n",
      "note_on channel=0 note=74 velocity=0 time=239\n",
      "note_on channel=0 note=72 velocity=80 time=1\n",
      "note_on channel=0 note=72 velocity=0 time=959\n",
      "note_on channel=0 note=74 velocity=80 time=241\n",
      "note_on channel=0 note=74 velocity=0 time=239\n",
      "note_on channel=0 note=81 velocity=80 time=1\n",
      "note_on channel=0 note=81 velocity=0 time=479\n",
      "note_on channel=0 note=79 velocity=80 time=1\n",
      "note_on channel=0 note=79 velocity=0 time=479\n",
      "note_on channel=0 note=74 velocity=80 time=241\n",
      "note_on channel=0 note=74 velocity=0 time=239\n",
      "note_on channel=0 note=81 velocity=80 time=1\n",
      "note_on channel=0 note=81 velocity=0 time=479\n",
      "note_on channel=0 note=79 velocity=80 time=1\n",
      "note_on channel=0 note=76 velocity=80 time=360\n",
      "note_on channel=0 note=76 velocity=0 time=119\n",
      "note_on channel=0 note=79 velocity=0 time=0\n",
      "note_on channel=0 note=77 velocity=80 time=1\n",
      "note_on channel=0 note=77 velocity=0 time=479\n",
      "note_on channel=0 note=74 velocity=80 time=1\n",
      "note_on channel=0 note=74 velocity=0 time=1919\n",
      "note_on channel=0 note=77 velocity=80 time=241\n",
      "note_on channel=0 note=77 velocity=0 time=239\n",
      "note_on channel=0 note=79 velocity=80 time=1\n",
      "note_on channel=0 note=79 velocity=0 time=239\n",
      "note_on channel=0 note=77 velocity=80 time=1\n",
      "note_on channel=0 note=77 velocity=0 time=239\n",
      "note_on channel=0 note=76 velocity=80 time=1\n",
      "note_on channel=0 note=76 velocity=0 time=1919\n",
      "note_on channel=0 note=76 velocity=80 time=241\n",
      "note_on channel=0 note=76 velocity=0 time=239\n",
      "note_on channel=0 note=79 velocity=80 time=1\n",
      "note_on channel=0 note=79 velocity=0 time=239\n",
      "note_on channel=0 note=76 velocity=80 time=1\n",
      "note_on channel=0 note=76 velocity=0 time=239\n",
      "note_on channel=0 note=72 velocity=80 time=1\n",
      "note_on channel=0 note=72 velocity=0 time=479\n",
      "note_on channel=0 note=72 velocity=80 time=241\n",
      "note_on channel=0 note=72 velocity=0 time=239\n",
      "note_on channel=0 note=76 velocity=80 time=1\n",
      "note_on channel=0 note=76 velocity=0 time=239\n",
      "note_on channel=0 note=72 velocity=80 time=1\n",
      "note_on channel=0 note=72 velocity=0 time=239\n",
      "note_on channel=0 note=70 velocity=80 time=1\n",
      "note_on channel=0 note=70 velocity=0 time=479\n",
      "note_on channel=0 note=70 velocity=80 time=241\n",
      "note_on channel=0 note=70 velocity=0 time=239\n",
      "note_on channel=0 note=72 velocity=80 time=1\n",
      "note_on channel=0 note=72 velocity=0 time=239\n",
      "note_on channel=0 note=70 velocity=80 time=1\n",
      "note_on channel=0 note=70 velocity=0 time=239\n",
      "note_on channel=0 note=69 velocity=80 time=481\n",
      "note_on channel=0 note=69 velocity=0 time=479\n",
      "note_on channel=0 note=70 velocity=80 time=1\n",
      "note_on channel=0 note=70 velocity=0 time=479\n",
      "note_on channel=0 note=72 velocity=80 time=1\n",
      "note_on channel=0 note=72 velocity=0 time=719\n",
      "note_on channel=0 note=74 velocity=80 time=1\n",
      "note_on channel=0 note=74 velocity=0 time=239\n",
      "note_on channel=0 note=76 velocity=80 time=1\n",
      "note_on channel=0 note=76 velocity=0 time=479\n",
      "note_on channel=0 note=72 velocity=80 time=481\n",
      "note_on channel=0 note=72 velocity=0 time=479\n",
      "note_on channel=0 note=74 velocity=80 time=1\n",
      "note_on channel=0 note=74 velocity=0 time=479\n",
      "note_on channel=0 note=76 velocity=80 time=1\n",
      "note_on channel=0 note=76 velocity=0 time=719\n",
      "note_on channel=0 note=77 velocity=80 time=1\n",
      "note_on channel=0 note=77 velocity=0 time=239\n",
      "note_on channel=0 note=81 velocity=80 time=1\n",
      "note_on channel=0 note=81 velocity=0 time=239\n",
      "note_on channel=0 note=77 velocity=80 time=1\n",
      "note_on channel=0 note=77 velocity=0 time=239\n",
      "note_on channel=0 note=76 velocity=80 time=1\n",
      "note_on channel=0 note=76 velocity=0 time=1919\n",
      "note_on channel=0 note=77 velocity=80 time=241\n",
      "note_on channel=0 note=77 velocity=0 time=239\n",
      "note_on channel=0 note=81 velocity=80 time=1\n",
      "note_on channel=0 note=81 velocity=0 time=239\n",
      "note_on channel=0 note=76 velocity=80 time=1\n",
      "note_on channel=0 note=76 velocity=0 time=239\n",
      "note_on channel=0 note=74 velocity=80 time=1\n",
      "note_on channel=0 note=74 velocity=0 time=479\n",
      "note_on channel=0 note=74 velocity=80 time=241\n",
      "note_on channel=0 note=74 velocity=0 time=239\n",
      "note_on channel=0 note=77 velocity=80 time=1\n",
      "note_on channel=0 note=77 velocity=0 time=239\n",
      "note_on channel=0 note=74 velocity=80 time=1\n",
      "note_on channel=0 note=74 velocity=0 time=239\n",
      "note_on channel=0 note=72 velocity=80 time=1\n",
      "note_on channel=0 note=72 velocity=0 time=959\n",
      "note_on channel=0 note=74 velocity=80 time=241\n",
      "note_on channel=0 note=74 velocity=0 time=239\n",
      "note_on channel=0 note=81 velocity=80 time=1\n",
      "note_on channel=0 note=81 velocity=0 time=479\n",
      "note_on channel=0 note=79 velocity=80 time=1\n",
      "note_on channel=0 note=79 velocity=0 time=479\n",
      "note_on channel=0 note=74 velocity=80 time=241\n",
      "note_on channel=0 note=74 velocity=0 time=239\n",
      "note_on channel=0 note=81 velocity=80 time=1\n",
      "note_on channel=0 note=81 velocity=0 time=479\n",
      "note_on channel=0 note=79 velocity=80 time=1\n",
      "note_on channel=0 note=76 velocity=80 time=360\n",
      "note_on channel=0 note=76 velocity=0 time=119\n",
      "note_on channel=0 note=79 velocity=0 time=0\n",
      "note_on channel=0 note=77 velocity=80 time=1\n",
      "note_on channel=0 note=77 velocity=0 time=479\n",
      "note_on channel=0 note=74 velocity=80 time=1\n",
      "note_on channel=0 note=74 velocity=0 time=1919\n",
      "note_on channel=0 note=77 velocity=80 time=241\n",
      "note_on channel=0 note=77 velocity=0 time=239\n",
      "note_on channel=0 note=79 velocity=80 time=1\n",
      "note_on channel=0 note=79 velocity=0 time=239\n",
      "note_on channel=0 note=77 velocity=80 time=1\n",
      "note_on channel=0 note=77 velocity=0 time=239\n",
      "note_on channel=0 note=76 velocity=80 time=1\n",
      "note_on channel=0 note=76 velocity=0 time=1919\n",
      "note_on channel=0 note=76 velocity=80 time=241\n",
      "note_on channel=0 note=76 velocity=0 time=239\n",
      "note_on channel=0 note=79 velocity=80 time=1\n",
      "note_on channel=0 note=79 velocity=0 time=239\n",
      "note_on channel=0 note=76 velocity=80 time=1\n",
      "note_on channel=0 note=76 velocity=0 time=239\n",
      "note_on channel=0 note=72 velocity=80 time=1\n",
      "note_on channel=0 note=72 velocity=0 time=479\n",
      "note_on channel=0 note=72 velocity=80 time=241\n",
      "note_on channel=0 note=72 velocity=0 time=239\n",
      "note_on channel=0 note=76 velocity=80 time=1\n",
      "note_on channel=0 note=76 velocity=0 time=239\n",
      "note_on channel=0 note=72 velocity=80 time=1\n",
      "note_on channel=0 note=72 velocity=0 time=239\n",
      "note_on channel=0 note=70 velocity=80 time=1\n",
      "note_on channel=0 note=70 velocity=0 time=479\n",
      "note_on channel=0 note=70 velocity=80 time=241\n",
      "note_on channel=0 note=70 velocity=0 time=239\n",
      "note_on channel=0 note=72 velocity=80 time=1\n",
      "note_on channel=0 note=72 velocity=0 time=239\n",
      "note_on channel=0 note=70 velocity=80 time=1\n",
      "note_on channel=0 note=70 velocity=0 time=239\n",
      "note_on channel=0 note=69 velocity=80 time=481\n",
      "note_on channel=0 note=69 velocity=0 time=479\n",
      "note_on channel=0 note=70 velocity=80 time=1\n",
      "note_on channel=0 note=70 velocity=0 time=479\n",
      "note_on channel=0 note=72 velocity=80 time=1\n",
      "note_on channel=0 note=72 velocity=0 time=719\n",
      "note_on channel=0 note=74 velocity=80 time=1\n",
      "note_on channel=0 note=74 velocity=0 time=239\n",
      "note_on channel=0 note=76 velocity=80 time=1\n",
      "note_on channel=0 note=76 velocity=0 time=479\n",
      "note_on channel=0 note=72 velocity=80 time=481\n",
      "note_on channel=0 note=72 velocity=0 time=479\n",
      "note_on channel=0 note=74 velocity=80 time=1\n",
      "note_on channel=0 note=74 velocity=0 time=479\n",
      "note_on channel=0 note=76 velocity=80 time=1\n",
      "note_on channel=0 note=76 velocity=0 time=719\n",
      "note_on channel=0 note=77 velocity=80 time=1\n",
      "note_on channel=0 note=77 velocity=0 time=239\n",
      "note_on channel=0 note=81 velocity=80 time=1\n",
      "note_on channel=0 note=81 velocity=0 time=239\n",
      "note_on channel=0 note=77 velocity=80 time=1\n",
      "note_on channel=0 note=77 velocity=0 time=239\n",
      "note_on channel=0 note=76 velocity=80 time=1\n",
      "note_on channel=0 note=76 velocity=0 time=1919\n",
      "note_on channel=0 note=77 velocity=80 time=241\n",
      "note_on channel=0 note=77 velocity=0 time=239\n",
      "note_on channel=0 note=81 velocity=80 time=1\n",
      "note_on channel=0 note=81 velocity=0 time=239\n",
      "note_on channel=0 note=76 velocity=80 time=1\n",
      "note_on channel=0 note=76 velocity=0 time=239\n",
      "note_on channel=0 note=74 velocity=80 time=1\n",
      "note_on channel=0 note=74 velocity=0 time=479\n",
      "note_on channel=0 note=77 velocity=80 time=241\n",
      "note_on channel=0 note=77 velocity=0 time=239\n",
      "note_on channel=0 note=81 velocity=80 time=1\n",
      "note_on channel=0 note=81 velocity=0 time=239\n",
      "note_on channel=0 note=86 velocity=80 time=1\n",
      "note_on channel=0 note=86 velocity=0 time=239\n",
      "note_on channel=0 note=88 velocity=80 time=1\n",
      "note_on channel=0 note=88 velocity=0 time=959\n",
      "note_on channel=0 note=86 velocity=80 time=241\n",
      "note_on channel=0 note=86 velocity=0 time=239\n",
      "note_on channel=0 note=89 velocity=80 time=1\n",
      "note_on channel=0 note=89 velocity=0 time=479\n",
      "note_on channel=0 note=88 velocity=80 time=1\n",
      "note_on channel=0 note=88 velocity=0 time=479\n",
      "note_on channel=0 note=86 velocity=80 time=241\n",
      "note_on channel=0 note=86 velocity=0 time=239\n",
      "note_on channel=0 note=81 velocity=80 time=1\n",
      "note_on channel=0 note=81 velocity=0 time=479\n",
      "note_on channel=0 note=83 velocity=80 time=1\n",
      "note_on channel=0 note=83 velocity=0 time=479\n",
      "note_on channel=0 note=86 velocity=80 time=1\n",
      "note_on channel=0 note=86 velocity=80 time=120\n",
      "note_on channel=0 note=86 velocity=0 time=119\n",
      "note_on channel=0 note=86 velocity=0 time=60\n",
      "note_on channel=0 note=88 velocity=80 time=1\n",
      "note_on channel=0 note=88 velocity=0 time=179\n",
      "note_on channel=0 note=89 velocity=80 time=1\n",
      "note_on channel=0 note=89 velocity=0 time=1319\n",
      "note_on channel=0 note=89 velocity=80 time=1\n",
      "note_on channel=0 note=88 velocity=80 time=60\n",
      "note_on channel=0 note=88 velocity=0 time=59\n",
      "note_on channel=0 note=89 velocity=0 time=0\n",
      "note_on channel=0 note=86 velocity=80 time=1\n",
      "note_on channel=0 note=86 velocity=0 time=479\n",
      "note_on channel=0 note=89 velocity=80 time=241\n",
      "note_on channel=0 note=89 velocity=0 time=239\n",
      "note_on channel=0 note=91 velocity=80 time=1\n",
      "note_on channel=0 note=91 velocity=0 time=239\n",
      "note_on channel=0 note=89 velocity=80 time=1\n",
      "note_on channel=0 note=89 velocity=0 time=239\n",
      "note_on channel=0 note=88 velocity=80 time=1\n",
      "note_on channel=0 note=88 velocity=0 time=1919\n",
      "note_on channel=0 note=88 velocity=80 time=241\n",
      "note_on channel=0 note=88 velocity=0 time=239\n",
      "note_on channel=0 note=91 velocity=80 time=1\n",
      "note_on channel=0 note=91 velocity=0 time=239\n",
      "note_on channel=0 note=88 velocity=80 time=1\n",
      "note_on channel=0 note=88 velocity=0 time=239\n",
      "note_on channel=0 note=84 velocity=80 time=1\n",
      "note_on channel=0 note=84 velocity=0 time=479\n",
      "note_on channel=0 note=84 velocity=80 time=241\n",
      "note_on channel=0 note=84 velocity=0 time=239\n",
      "note_on channel=0 note=88 velocity=80 time=1\n",
      "note_on channel=0 note=88 velocity=0 time=239\n",
      "note_on channel=0 note=84 velocity=80 time=1\n",
      "note_on channel=0 note=84 velocity=0 time=239\n",
      "note_on channel=0 note=82 velocity=80 time=1\n",
      "note_on channel=0 note=82 velocity=0 time=239\n",
      "note_on channel=0 note=84 velocity=80 time=1\n",
      "note_on channel=0 note=84 velocity=0 time=239\n",
      "note_on channel=0 note=86 velocity=80 time=1\n",
      "note_on channel=0 note=86 velocity=0 time=239\n",
      "note_on channel=0 note=88 velocity=80 time=1\n",
      "note_on channel=0 note=88 velocity=0 time=239\n",
      "note_on channel=0 note=91 velocity=80 time=1\n",
      "note_on channel=0 note=91 velocity=0 time=239\n",
      "note_on channel=0 note=93 velocity=80 time=1\n",
      "note_on channel=0 note=93 velocity=0 time=239\n",
      "note_on channel=0 note=94 velocity=80 time=1\n",
      "note_on channel=0 note=94 velocity=0 time=59\n",
      "note_on channel=0 note=96 velocity=80 time=1\n",
      "note_on channel=0 note=96 velocity=0 time=59\n",
      "note_on channel=0 note=94 velocity=80 time=1\n",
      "note_on channel=0 note=94 velocity=0 time=59\n",
      "note_on channel=0 note=96 velocity=80 time=1\n",
      "note_on channel=0 note=96 velocity=0 time=59\n",
      "note_on channel=0 note=94 velocity=80 time=1\n",
      "note_on channel=0 note=94 velocity=0 time=59\n",
      "note_on channel=0 note=96 velocity=80 time=1\n",
      "note_on channel=0 note=96 velocity=0 time=59\n",
      "note_on channel=0 note=94 velocity=80 time=1\n",
      "note_on channel=0 note=94 velocity=0 time=59\n",
      "note_on channel=0 note=96 velocity=80 time=1\n",
      "note_on channel=0 note=96 velocity=0 time=59\n",
      "note_on channel=0 note=94 velocity=80 time=1\n",
      "note_on channel=0 note=94 velocity=0 time=59\n",
      "note_on channel=0 note=96 velocity=80 time=1\n",
      "note_on channel=0 note=96 velocity=0 time=59\n",
      "note_on channel=0 note=94 velocity=80 time=1\n",
      "note_on channel=0 note=94 velocity=0 time=59\n",
      "note_on channel=0 note=96 velocity=80 time=1\n",
      "note_on channel=0 note=96 velocity=0 time=59\n",
      "note_on channel=0 note=94 velocity=80 time=1\n",
      "note_on channel=0 note=94 velocity=0 time=59\n",
      "note_on channel=0 note=96 velocity=80 time=1\n",
      "note_on channel=0 note=96 velocity=0 time=59\n",
      "note_on channel=0 note=94 velocity=80 time=1\n",
      "note_on channel=0 note=94 velocity=0 time=59\n",
      "note_on channel=0 note=96 velocity=80 time=1\n",
      "note_on channel=0 note=96 velocity=0 time=59\n",
      "note_on channel=0 note=94 velocity=80 time=1\n",
      "note_on channel=0 note=94 velocity=0 time=59\n",
      "note_on channel=0 note=96 velocity=80 time=1\n",
      "note_on channel=0 note=96 velocity=0 time=59\n",
      "note_on channel=0 note=94 velocity=80 time=1\n",
      "note_on channel=0 note=94 velocity=0 time=59\n",
      "note_on channel=0 note=96 velocity=80 time=1\n",
      "note_on channel=0 note=96 velocity=0 time=59\n",
      "note_on channel=0 note=94 velocity=80 time=241\n",
      "note_on channel=0 note=94 velocity=0 time=959\n",
      "note_on channel=0 note=94 velocity=80 time=481\n",
      "note_on channel=0 note=94 velocity=0 time=479\n",
      "note_on channel=0 note=93 velocity=80 time=1\n",
      "note_on channel=0 note=93 velocity=0 time=479\n",
      "note_on channel=0 note=79 velocity=80 time=241\n",
      "note_on channel=0 note=79 velocity=0 time=239\n",
      "note_on channel=0 note=86 velocity=80 time=1\n",
      "note_on channel=0 note=86 velocity=0 time=479\n",
      "note_on channel=0 note=81 velocity=80 time=1\n",
      "note_on channel=0 note=81 velocity=0 time=479\n",
      "note_on channel=0 note=79 velocity=80 time=1\n",
      "note_on channel=0 note=79 velocity=0 time=479\n",
      "note_on channel=0 note=81 velocity=80 time=1\n",
      "note_on channel=0 note=81 velocity=0 time=1439\n",
      "note_on channel=0 note=77 velocity=80 time=1\n",
      "note_on channel=0 note=77 velocity=0 time=1439\n",
      "note_on channel=0 note=81 velocity=80 time=1\n",
      "note_on channel=0 note=81 velocity=0 time=479\n",
      "note_on channel=0 note=79 velocity=80 time=1\n",
      "note_on channel=0 note=79 velocity=0 time=479\n",
      "note_on channel=0 note=77 velocity=80 time=241\n",
      "note_on channel=0 note=77 velocity=0 time=239\n",
      "note_on channel=0 note=81 velocity=80 time=1\n",
      "note_on channel=0 note=81 velocity=0 time=479\n",
      "note_on channel=0 note=78 velocity=80 time=1\n",
      "note_on channel=0 note=78 velocity=0 time=479\n",
      "note_on channel=0 note=74 velocity=80 time=1\n",
      "note_on channel=0 note=74 velocity=0 time=479\n",
      "note_on channel=0 note=71 velocity=64 time=1\n",
      "note_on channel=0 note=71 velocity=0 time=479\n",
      "note_on channel=0 note=85 velocity=64 time=1\n",
      "note_on channel=0 note=85 velocity=0 time=239\n",
      "note_on channel=0 note=86 velocity=64 time=1\n",
      "note_on channel=0 note=86 velocity=0 time=239\n",
      "note_on channel=0 note=87 velocity=64 time=1\n",
      "note_on channel=0 note=87 velocity=0 time=239\n",
      "note_on channel=0 note=88 velocity=64 time=1\n",
      "note_on channel=0 note=88 velocity=0 time=239\n",
      "note_on channel=0 note=89 velocity=64 time=1\n",
      "note_on channel=0 note=89 velocity=0 time=239\n",
      "note_on channel=0 note=90 velocity=64 time=1\n",
      "note_on channel=0 note=90 velocity=0 time=239\n",
      "note_on channel=0 note=91 velocity=64 time=1\n",
      "note_on channel=0 note=91 velocity=0 time=239\n",
      "note_on channel=0 note=92 velocity=64 time=1\n",
      "note_on channel=0 note=92 velocity=0 time=239\n",
      "note_on channel=0 note=93 velocity=64 time=1\n",
      "note_on channel=0 note=93 velocity=0 time=239\n",
      "note_on channel=0 note=94 velocity=64 time=1\n",
      "note_on channel=0 note=94 velocity=0 time=239\n",
      "note_on channel=0 note=94 velocity=64 time=1\n",
      "note_on channel=0 note=94 velocity=0 time=239\n",
      "note_on channel=0 note=93 velocity=64 time=1\n",
      "note_on channel=0 note=93 velocity=0 time=239\n",
      "note_on channel=0 note=92 velocity=64 time=1\n",
      "note_on channel=0 note=92 velocity=0 time=239\n",
      "note_on channel=0 note=91 velocity=64 time=1\n",
      "note_on channel=0 note=91 velocity=0 time=239\n",
      "note_on channel=0 note=90 velocity=64 time=1\n",
      "note_on channel=0 note=90 velocity=0 time=239\n",
      "note_on channel=0 note=89 velocity=64 time=1\n",
      "note_on channel=0 note=89 velocity=0 time=239\n",
      "note_on channel=0 note=88 velocity=64 time=1\n",
      "note_on channel=0 note=88 velocity=0 time=239\n",
      "note_on channel=0 note=87 velocity=64 time=1\n",
      "note_on channel=0 note=87 velocity=0 time=239\n",
      "note_on channel=0 note=86 velocity=64 time=1\n",
      "note_on channel=0 note=86 velocity=0 time=239\n",
      "note_on channel=0 note=85 velocity=64 time=1\n",
      "note_on channel=0 note=85 velocity=0 time=239\n",
      "note_on channel=0 note=84 velocity=64 time=1\n",
      "note_on channel=0 note=84 velocity=0 time=239\n",
      "note_on channel=0 note=71 velocity=64 time=1\n",
      "note_on channel=0 note=71 velocity=0 time=239\n",
      "note_on channel=0 note=76 velocity=64 time=1\n",
      "note_on channel=0 note=76 velocity=0 time=479\n",
      "note_on channel=0 note=79 velocity=64 time=1\n",
      "note_on channel=0 note=79 velocity=0 time=479\n",
      "note_on channel=0 note=74 velocity=64 time=241\n",
      "note_on channel=0 note=74 velocity=0 time=239\n",
      "note_on channel=0 note=76 velocity=64 time=1\n",
      "note_on channel=0 note=76 velocity=0 time=479\n",
      "note_on channel=0 note=70 velocity=64 time=1\n",
      "note_on channel=0 note=70 velocity=0 time=479\n",
      "note_on channel=0 note=71 velocity=64 time=1\n",
      "note_on channel=0 note=71 velocity=0 time=479\n",
      "note_on channel=0 note=72 velocity=64 time=1\n",
      "note_on channel=0 note=72 velocity=0 time=1439\n",
      "note_on channel=0 note=84 velocity=64 time=1\n",
      "note_on channel=0 note=84 velocity=0 time=239\n",
      "note_on channel=0 note=86 velocity=64 time=1\n",
      "note_on channel=0 note=86 velocity=0 time=239\n",
      "note_on channel=0 note=88 velocity=64 time=1\n",
      "note_on channel=0 note=88 velocity=0 time=239\n",
      "note_on channel=0 note=89 velocity=64 time=1\n",
      "note_on channel=0 note=91 velocity=64 time=180\n",
      "note_on channel=0 note=91 velocity=0 time=59\n",
      "note_on channel=0 note=89 velocity=0 time=0\n",
      "note_on channel=0 note=93 velocity=64 time=1\n",
      "note_on channel=0 note=93 velocity=0 time=239\n",
      "note_on channel=0 note=89 velocity=64 time=1\n",
      "note_on channel=0 note=89 velocity=0 time=239\n",
      "note_on channel=0 note=88 velocity=64 time=1\n",
      "note_on channel=0 note=88 velocity=0 time=1919\n",
      "note_on channel=0 note=89 velocity=64 time=241\n",
      "note_on channel=0 note=89 velocity=0 time=239\n",
      "note_on channel=0 note=93 velocity=64 time=1\n",
      "note_on channel=0 note=93 velocity=0 time=239\n",
      "note_on channel=0 note=88 velocity=64 time=1\n",
      "note_on channel=0 note=88 velocity=0 time=239\n",
      "note_on channel=0 note=86 velocity=64 time=1\n",
      "note_on channel=0 note=86 velocity=0 time=479\n",
      "note_on channel=0 note=86 velocity=64 time=241\n",
      "note_on channel=0 note=86 velocity=0 time=239\n",
      "note_on channel=0 note=89 velocity=64 time=1\n",
      "note_on channel=0 note=89 velocity=0 time=239\n",
      "note_on channel=0 note=93 velocity=64 time=1\n",
      "note_on channel=0 note=93 velocity=0 time=239\n",
      "note_on channel=0 note=96 velocity=64 time=1\n",
      "note_on channel=0 note=96 velocity=0 time=959\n",
      "note_on channel=0 note=89 velocity=64 time=241\n",
      "note_on channel=0 note=89 velocity=0 time=239\n",
      "note_on channel=0 note=93 velocity=64 time=1\n",
      "note_on channel=0 note=93 velocity=0 time=479\n",
      "note_on channel=0 note=91 velocity=64 time=1\n",
      "note_on channel=0 note=91 velocity=0 time=479\n",
      "note_on channel=0 note=86 velocity=64 time=241\n",
      "note_on channel=0 note=86 velocity=0 time=239\n",
      "note_on channel=0 note=93 velocity=64 time=1\n",
      "note_on channel=0 note=93 velocity=0 time=479\n",
      "note_on channel=0 note=91 velocity=64 time=1\n",
      "note_on channel=0 note=88 velocity=64 time=360\n",
      "note_on channel=0 note=88 velocity=0 time=119\n",
      "note_on channel=0 note=91 velocity=0 time=0\n",
      "note_on channel=0 note=89 velocity=64 time=1\n",
      "note_on channel=0 note=89 velocity=0 time=479\n",
      "note_on channel=0 note=86 velocity=64 time=1\n",
      "note_on channel=0 note=86 velocity=0 time=1919\n",
      "note_on channel=0 note=89 velocity=64 time=241\n",
      "note_on channel=0 note=89 velocity=0 time=239\n",
      "note_on channel=0 note=91 velocity=64 time=1\n",
      "note_on channel=0 note=91 velocity=0 time=239\n",
      "note_on channel=0 note=89 velocity=64 time=1\n",
      "note_on channel=0 note=89 velocity=0 time=239\n",
      "note_on channel=0 note=88 velocity=64 time=1\n",
      "note_on channel=0 note=88 velocity=0 time=1919\n",
      "note_on channel=0 note=88 velocity=64 time=241\n",
      "note_on channel=0 note=88 velocity=0 time=239\n",
      "note_on channel=0 note=91 velocity=64 time=1\n",
      "note_on channel=0 note=91 velocity=0 time=239\n",
      "note_on channel=0 note=88 velocity=64 time=1\n",
      "note_on channel=0 note=88 velocity=0 time=239\n",
      "note_on channel=0 note=84 velocity=64 time=1\n",
      "note_on channel=0 note=84 velocity=0 time=479\n",
      "<meta message set_tempo tempo=428572 time=1>\n",
      "note_on channel=0 note=84 velocity=64 time=240\n",
      "note_on channel=0 note=84 velocity=0 time=239\n",
      "note_on channel=0 note=88 velocity=64 time=1\n",
      "note_on channel=0 note=88 velocity=0 time=239\n",
      "note_on channel=0 note=84 velocity=64 time=1\n",
      "note_on channel=0 note=84 velocity=0 time=239\n",
      "note_on channel=0 note=70 velocity=64 time=1\n",
      "note_on channel=0 note=70 velocity=0 time=1439\n",
      "<meta message set_tempo tempo=500000 time=1>\n",
      "note_on channel=0 note=69 velocity=80 time=360\n",
      "note_on channel=0 note=81 velocity=80 time=120\n",
      "note_on channel=0 note=69 velocity=0 time=359\n",
      "note_on channel=0 note=70 velocity=80 time=1\n",
      "note_on channel=0 note=81 velocity=0 time=119\n",
      "note_on channel=0 note=82 velocity=80 time=1\n",
      "note_on channel=0 note=70 velocity=0 time=359\n",
      "note_on channel=0 note=72 velocity=80 time=1\n",
      "note_on channel=0 note=82 velocity=0 time=119\n",
      "note_on channel=0 note=84 velocity=80 time=1\n",
      "note_on channel=0 note=72 velocity=0 time=359\n",
      "note_on channel=0 note=84 velocity=0 time=120\n",
      "note_on channel=0 note=74 velocity=80 time=121\n",
      "note_on channel=0 note=86 velocity=80 time=120\n",
      "note_on channel=0 note=74 velocity=0 time=119\n",
      "note_on channel=0 note=76 velocity=80 time=1\n",
      "note_on channel=0 note=86 velocity=0 time=119\n",
      "note_on channel=0 note=88 velocity=80 time=1\n",
      "note_on channel=0 note=76 velocity=0 time=359\n",
      "note_on channel=0 note=88 velocity=0 time=120\n",
      "note_on channel=0 note=72 velocity=80 time=361\n",
      "note_on channel=0 note=84 velocity=80 time=120\n",
      "note_on channel=0 note=72 velocity=0 time=359\n",
      "note_on channel=0 note=74 velocity=80 time=1\n",
      "note_on channel=0 note=84 velocity=0 time=119\n",
      "note_on channel=0 note=86 velocity=80 time=1\n",
      "note_on channel=0 note=74 velocity=0 time=359\n",
      "note_on channel=0 note=76 velocity=80 time=1\n",
      "note_on channel=0 note=86 velocity=0 time=119\n",
      "note_on channel=0 note=88 velocity=80 time=1\n",
      "note_on channel=0 note=76 velocity=0 time=359\n",
      "note_on channel=0 note=88 velocity=0 time=120\n",
      "<meta message set_tempo tempo=342857 time=241>\n",
      "note_on channel=0 note=77 velocity=80 time=0\n",
      "note_on channel=0 note=77 velocity=0 time=239\n",
      "note_on channel=0 note=81 velocity=80 time=1\n",
      "note_on channel=0 note=81 velocity=0 time=239\n",
      "note_on channel=0 note=77 velocity=80 time=1\n",
      "note_on channel=0 note=77 velocity=0 time=239\n",
      "note_on channel=0 note=76 velocity=64 time=1\n",
      "<meta message set_tempo tempo=352942 time=1440>\n",
      "<meta message set_tempo tempo=363636 time=480>\n",
      "<meta message set_tempo tempo=375000 time=480>\n",
      "<meta message set_tempo tempo=387097 time=480>\n",
      "<meta message set_tempo tempo=400000 time=480>\n",
      "<meta message set_tempo tempo=413793 time=480>\n",
      "<meta message set_tempo tempo=428572 time=480>\n",
      "note_on channel=0 note=76 velocity=0 time=479\n",
      "<meta message set_tempo tempo=444444 time=1>\n",
      "note_on channel=0 note=77 velocity=64 time=240\n",
      "note_on channel=0 note=77 velocity=0 time=239\n",
      "<meta message set_tempo tempo=461538 time=1>\n",
      "note_on channel=0 note=81 velocity=64 time=0\n",
      "note_on channel=0 note=81 velocity=0 time=239\n",
      "note_on channel=0 note=77 velocity=64 time=1\n",
      "note_on channel=0 note=77 velocity=0 time=239\n",
      "<meta message set_tempo tempo=480001 time=1>\n",
      "note_on channel=0 note=76 velocity=64 time=0\n",
      "<meta message set_tempo tempo=500000 time=960>\n",
      "<meta message set_tempo tempo=521738 time=480>\n",
      "<meta message set_tempo tempo=545456 time=1440>\n",
      "<meta message set_tempo tempo=571429 time=1440>\n",
      "note_on channel=0 note=76 velocity=0 time=479\n",
      "note_on channel=0 note=77 velocity=64 time=241\n",
      "note_on channel=0 note=77 velocity=0 time=239\n",
      "note_on channel=0 note=81 velocity=64 time=1\n",
      "note_on channel=0 note=81 velocity=0 time=239\n",
      "note_on channel=0 note=77 velocity=64 time=1\n",
      "note_on channel=0 note=77 velocity=0 time=239\n",
      "<meta message set_tempo tempo=599999 time=1>\n",
      "note_on channel=0 note=76 velocity=64 time=0\n",
      "note_on channel=0 note=76 velocity=0 time=1919\n",
      "note_on channel=0 note=77 velocity=64 time=241\n",
      "note_on channel=0 note=77 velocity=0 time=239\n",
      "note_on channel=0 note=81 velocity=64 time=1\n",
      "note_on channel=0 note=81 velocity=0 time=239\n",
      "note_on channel=0 note=76 velocity=64 time=1\n",
      "note_on channel=0 note=76 velocity=0 time=239\n",
      "note_on channel=0 note=74 velocity=64 time=1\n",
      "note_on channel=0 note=74 velocity=0 time=479\n",
      "note_on channel=0 note=74 velocity=64 time=241\n",
      "note_on channel=0 note=74 velocity=0 time=239\n",
      "note_on channel=0 note=77 velocity=64 time=1\n",
      "note_on channel=0 note=77 velocity=0 time=239\n",
      "note_on channel=0 note=74 velocity=64 time=1\n",
      "note_on channel=0 note=74 velocity=0 time=239\n",
      "note_on channel=0 note=72 velocity=64 time=1\n",
      "note_on channel=0 note=72 velocity=0 time=959\n",
      "note_on channel=0 note=71 velocity=64 time=241\n",
      "note_on channel=0 note=71 velocity=0 time=239\n",
      "note_on channel=0 note=81 velocity=64 time=1\n",
      "note_on channel=0 note=81 velocity=0 time=479\n",
      "note_on channel=0 note=79 velocity=64 time=1\n",
      "note_on channel=0 note=79 velocity=0 time=479\n",
      "note_on channel=0 note=74 velocity=64 time=241\n",
      "note_on channel=0 note=74 velocity=0 time=239\n",
      "note_on channel=0 note=81 velocity=64 time=1\n",
      "note_on channel=0 note=81 velocity=0 time=479\n",
      "note_on channel=0 note=79 velocity=64 time=1\n",
      "note_on channel=0 note=79 velocity=0 time=479\n",
      "note_on channel=0 note=77 velocity=64 time=1\n",
      "note_on channel=0 note=77 velocity=0 time=479\n",
      "note_on channel=0 note=74 velocity=64 time=1\n",
      "note_on channel=0 note=74 velocity=0 time=1919\n",
      "note_on channel=0 note=77 velocity=64 time=241\n",
      "note_on channel=0 note=77 velocity=0 time=239\n",
      "note_on channel=0 note=79 velocity=64 time=1\n",
      "note_on channel=0 note=79 velocity=0 time=239\n",
      "note_on channel=0 note=77 velocity=64 time=1\n",
      "note_on channel=0 note=77 velocity=0 time=239\n",
      "note_on channel=0 note=76 velocity=64 time=1\n",
      "note_on channel=0 note=76 velocity=0 time=1919\n",
      "note_on channel=0 note=76 velocity=64 time=241\n",
      "note_on channel=0 note=76 velocity=0 time=239\n",
      "note_on channel=0 note=79 velocity=64 time=1\n",
      "note_on channel=0 note=79 velocity=0 time=239\n",
      "note_on channel=0 note=76 velocity=64 time=1\n",
      "note_on channel=0 note=76 velocity=0 time=239\n",
      "note_on channel=0 note=72 velocity=64 time=1\n",
      "note_on channel=0 note=72 velocity=0 time=479\n",
      "note_on channel=0 note=72 velocity=64 time=241\n",
      "note_on channel=0 note=72 velocity=0 time=239\n",
      "note_on channel=0 note=76 velocity=64 time=1\n",
      "note_on channel=0 note=76 velocity=0 time=239\n",
      "note_on channel=0 note=72 velocity=64 time=1\n",
      "note_on channel=0 note=72 velocity=0 time=239\n",
      "note_on channel=0 note=70 velocity=64 time=1\n",
      "note_on channel=0 note=70 velocity=0 time=1439\n",
      "note_on channel=0 note=69 velocity=64 time=481\n",
      "note_on channel=0 note=69 velocity=0 time=479\n",
      "note_on channel=0 note=70 velocity=64 time=1\n",
      "note_on channel=0 note=70 velocity=0 time=479\n",
      "note_on channel=0 note=72 velocity=64 time=1\n",
      "note_on channel=0 note=72 velocity=0 time=719\n",
      "note_on channel=0 note=74 velocity=64 time=1\n",
      "note_on channel=0 note=74 velocity=0 time=239\n",
      "note_on channel=0 note=76 velocity=64 time=1\n",
      "note_on channel=0 note=76 velocity=0 time=479\n",
      "note_on channel=0 note=72 velocity=64 time=481\n",
      "note_on channel=0 note=72 velocity=0 time=479\n",
      "note_on channel=0 note=74 velocity=64 time=1\n",
      "note_on channel=0 note=74 velocity=0 time=479\n",
      "note_on channel=0 note=76 velocity=64 time=1\n",
      "note_on channel=0 note=76 velocity=0 time=1439\n",
      "note_on channel=0 note=89 velocity=33 time=5041\n",
      "note_on channel=0 note=89 velocity=0 time=239\n",
      "note_on channel=0 note=93 velocity=33 time=1\n",
      "note_on channel=0 note=93 velocity=0 time=239\n",
      "note_on channel=0 note=89 velocity=33 time=1\n",
      "note_on channel=0 note=89 velocity=0 time=239\n",
      "note_on channel=0 note=88 velocity=33 time=1\n",
      "note_on channel=0 note=88 velocity=0 time=1919\n",
      "note_on channel=0 note=89 velocity=33 time=241\n",
      "note_on channel=0 note=89 velocity=0 time=239\n",
      "note_on channel=0 note=93 velocity=33 time=1\n",
      "note_on channel=0 note=93 velocity=0 time=239\n",
      "note_on channel=0 note=88 velocity=33 time=1\n",
      "note_on channel=0 note=88 velocity=0 time=239\n",
      "note_on channel=0 note=86 velocity=33 time=1\n",
      "note_on channel=0 note=86 velocity=0 time=479\n",
      "note_on channel=0 note=86 velocity=33 time=241\n",
      "note_on channel=0 note=86 velocity=0 time=239\n",
      "note_on channel=0 note=89 velocity=33 time=1\n",
      "note_on channel=0 note=89 velocity=0 time=239\n",
      "note_on channel=0 note=86 velocity=33 time=1\n",
      "note_on channel=0 note=86 velocity=0 time=239\n",
      "note_on channel=0 note=84 velocity=33 time=1\n",
      "note_on channel=0 note=84 velocity=0 time=959\n",
      "note_on channel=0 note=86 velocity=33 time=241\n",
      "note_on channel=0 note=86 velocity=0 time=239\n",
      "note_on channel=0 note=93 velocity=33 time=1\n",
      "note_on channel=0 note=93 velocity=0 time=479\n",
      "note_on channel=0 note=91 velocity=33 time=1\n",
      "note_on channel=0 note=91 velocity=0 time=479\n",
      "note_on channel=0 note=86 velocity=33 time=241\n",
      "note_on channel=0 note=86 velocity=0 time=239\n",
      "note_on channel=0 note=93 velocity=33 time=1\n",
      "note_on channel=0 note=93 velocity=0 time=479\n",
      "note_on channel=0 note=91 velocity=33 time=1\n",
      "note_on channel=0 note=91 velocity=0 time=479\n",
      "note_on channel=0 note=89 velocity=33 time=1\n",
      "note_on channel=0 note=89 velocity=0 time=479\n",
      "note_on channel=0 note=86 velocity=33 time=1\n",
      "note_on channel=0 note=86 velocity=0 time=1919\n",
      "note_on channel=0 note=89 velocity=33 time=241\n",
      "note_on channel=0 note=89 velocity=0 time=239\n",
      "note_on channel=0 note=91 velocity=33 time=1\n",
      "note_on channel=0 note=91 velocity=0 time=239\n",
      "note_on channel=0 note=89 velocity=33 time=1\n",
      "note_on channel=0 note=89 velocity=0 time=239\n",
      "note_on channel=0 note=88 velocity=33 time=1\n",
      "note_on channel=0 note=88 velocity=0 time=1919\n",
      "note_on channel=0 note=88 velocity=33 time=241\n",
      "note_on channel=0 note=88 velocity=0 time=239\n",
      "note_on channel=0 note=91 velocity=33 time=1\n",
      "note_on channel=0 note=91 velocity=0 time=239\n",
      "note_on channel=0 note=88 velocity=33 time=1\n",
      "note_on channel=0 note=88 velocity=0 time=239\n",
      "note_on channel=0 note=84 velocity=33 time=1\n",
      "note_on channel=0 note=84 velocity=0 time=479\n",
      "note_on channel=0 note=84 velocity=33 time=241\n",
      "note_on channel=0 note=84 velocity=0 time=239\n",
      "note_on channel=0 note=88 velocity=33 time=1\n",
      "note_on channel=0 note=88 velocity=0 time=239\n",
      "note_on channel=0 note=84 velocity=33 time=1\n",
      "note_on channel=0 note=84 velocity=0 time=239\n",
      "note_on channel=0 note=82 velocity=33 time=1\n",
      "note_on channel=0 note=82 velocity=0 time=1439\n",
      "note_on channel=0 note=81 velocity=33 time=481\n",
      "note_on channel=0 note=81 velocity=0 time=479\n",
      "note_on channel=0 note=82 velocity=33 time=1\n",
      "note_on channel=0 note=82 velocity=0 time=479\n",
      "note_on channel=0 note=84 velocity=33 time=1\n",
      "note_on channel=0 note=84 velocity=0 time=719\n",
      "note_on channel=0 note=86 velocity=33 time=1\n",
      "note_on channel=0 note=86 velocity=0 time=239\n",
      "note_on channel=0 note=88 velocity=33 time=1\n",
      "note_on channel=0 note=88 velocity=0 time=479\n",
      "note_on channel=0 note=84 velocity=33 time=481\n",
      "note_on channel=0 note=84 velocity=0 time=479\n",
      "note_on channel=0 note=86 velocity=33 time=1\n",
      "note_on channel=0 note=86 velocity=0 time=479\n",
      "note_on channel=0 note=88 velocity=33 time=1\n",
      "note_on channel=0 note=88 velocity=0 time=719\n",
      "note_on channel=0 note=89 velocity=33 time=1\n",
      "note_on channel=0 note=89 velocity=0 time=239\n",
      "note_on channel=0 note=93 velocity=33 time=1\n",
      "note_on channel=0 note=93 velocity=0 time=239\n",
      "note_on channel=0 note=89 velocity=33 time=1\n",
      "note_on channel=0 note=89 velocity=0 time=239\n",
      "note_on channel=0 note=96 velocity=49 time=1\n",
      "note_on channel=0 note=96 velocity=0 time=5759\n",
      "note_on channel=0 note=65 velocity=33 time=1\n",
      "note_on channel=0 note=60 velocity=33 time=0\n",
      "note_on channel=0 note=57 velocity=33 time=0\n",
      "note_on channel=0 note=65 velocity=0 time=1439\n",
      "note_on channel=0 note=60 velocity=0 time=0\n",
      "note_on channel=0 note=57 velocity=0 time=0\n",
      "<meta message end_of_track time=1>\n",
      "Track 1: \n",
      "<meta message key_signature key='F' time=0>\n",
      "note_on channel=0 note=53 velocity=80 time=0\n",
      "note_on channel=0 note=53 velocity=0 time=479\n",
      "note_on channel=0 note=60 velocity=80 time=1\n",
      "note_on channel=0 note=57 velocity=80 time=0\n",
      "note_on channel=0 note=60 velocity=0 time=479\n",
      "note_on channel=0 note=57 velocity=0 time=0\n",
      "note_on channel=0 note=60 velocity=80 time=1\n",
      "note_on channel=0 note=57 velocity=80 time=0\n",
      "note_on channel=0 note=60 velocity=0 time=479\n",
      "note_on channel=0 note=57 velocity=0 time=0\n",
      "note_on channel=0 note=48 velocity=80 time=1\n",
      "note_on channel=0 note=48 velocity=0 time=479\n",
      "note_on channel=0 note=60 velocity=80 time=1\n",
      "note_on channel=0 note=57 velocity=80 time=0\n",
      "note_on channel=0 note=60 velocity=0 time=479\n",
      "note_on channel=0 note=57 velocity=0 time=0\n",
      "note_on channel=0 note=60 velocity=80 time=1\n",
      "note_on channel=0 note=57 velocity=80 time=0\n",
      "note_on channel=0 note=60 velocity=0 time=479\n",
      "note_on channel=0 note=57 velocity=0 time=0\n",
      "note_on channel=0 note=50 velocity=80 time=1\n",
      "note_on channel=0 note=50 velocity=0 time=479\n",
      "note_on channel=0 note=60 velocity=80 time=1\n",
      "note_on channel=0 note=57 velocity=80 time=0\n",
      "note_on channel=0 note=60 velocity=0 time=479\n",
      "note_on channel=0 note=57 velocity=0 time=0\n",
      "note_on channel=0 note=60 velocity=80 time=1\n",
      "note_on channel=0 note=57 velocity=80 time=0\n",
      "note_on channel=0 note=60 velocity=0 time=479\n",
      "note_on channel=0 note=57 velocity=0 time=0\n",
      "note_on channel=0 note=48 velocity=80 time=1\n",
      "note_on channel=0 note=48 velocity=0 time=479\n",
      "note_on channel=0 note=50 velocity=80 time=1\n",
      "note_on channel=0 note=50 velocity=0 time=479\n",
      "note_on channel=0 note=52 velocity=80 time=1\n",
      "note_on channel=0 note=52 velocity=0 time=479\n",
      "note_on channel=0 note=53 velocity=80 time=1\n",
      "note_on channel=0 note=53 velocity=0 time=479\n",
      "note_on channel=0 note=60 velocity=80 time=1\n",
      "note_on channel=0 note=57 velocity=80 time=0\n",
      "note_on channel=0 note=60 velocity=0 time=479\n",
      "note_on channel=0 note=57 velocity=0 time=0\n",
      "note_on channel=0 note=60 velocity=80 time=1\n",
      "note_on channel=0 note=57 velocity=80 time=0\n",
      "note_on channel=0 note=60 velocity=0 time=479\n",
      "note_on channel=0 note=57 velocity=0 time=0\n",
      "note_on channel=0 note=48 velocity=80 time=1\n",
      "note_on channel=0 note=48 velocity=0 time=479\n",
      "note_on channel=0 note=60 velocity=80 time=1\n",
      "note_on channel=0 note=57 velocity=80 time=0\n",
      "note_on channel=0 note=60 velocity=0 time=479\n",
      "note_on channel=0 note=57 velocity=0 time=0\n",
      "note_on channel=0 note=60 velocity=80 time=1\n",
      "note_on channel=0 note=57 velocity=80 time=0\n",
      "note_on channel=0 note=60 velocity=0 time=479\n",
      "note_on channel=0 note=57 velocity=0 time=0\n",
      "note_on channel=0 note=50 velocity=80 time=1\n",
      "note_on channel=0 note=50 velocity=0 time=479\n",
      "note_on channel=0 note=60 velocity=80 time=1\n",
      "note_on channel=0 note=57 velocity=80 time=0\n",
      "note_on channel=0 note=60 velocity=0 time=479\n",
      "note_on channel=0 note=57 velocity=0 time=0\n",
      "note_on channel=0 note=60 velocity=80 time=1\n",
      "note_on channel=0 note=57 velocity=80 time=0\n",
      "note_on channel=0 note=60 velocity=0 time=479\n",
      "note_on channel=0 note=57 velocity=0 time=0\n",
      "note_on channel=0 note=48 velocity=80 time=1\n",
      "note_on channel=0 note=48 velocity=0 time=479\n",
      "note_on channel=0 note=60 velocity=80 time=1\n",
      "note_on channel=0 note=57 velocity=80 time=0\n",
      "note_on channel=0 note=60 velocity=0 time=479\n",
      "note_on channel=0 note=57 velocity=0 time=0\n",
      "note_on channel=0 note=60 velocity=80 time=1\n",
      "note_on channel=0 note=57 velocity=80 time=0\n",
      "note_on channel=0 note=60 velocity=0 time=479\n",
      "note_on channel=0 note=57 velocity=0 time=0\n",
      "note_on channel=0 note=47 velocity=80 time=1\n",
      "note_on channel=0 note=47 velocity=0 time=479\n",
      "note_on channel=0 note=55 velocity=80 time=1\n",
      "note_on channel=0 note=53 velocity=80 time=0\n",
      "note_on channel=0 note=50 velocity=80 time=0\n",
      "note_on channel=0 note=55 velocity=0 time=479\n",
      "note_on channel=0 note=53 velocity=0 time=0\n",
      "note_on channel=0 note=50 velocity=0 time=0\n",
      "note_on channel=0 note=55 velocity=80 time=1\n",
      "note_on channel=0 note=53 velocity=80 time=0\n",
      "note_on channel=0 note=50 velocity=80 time=0\n",
      "note_on channel=0 note=55 velocity=0 time=479\n",
      "note_on channel=0 note=53 velocity=0 time=0\n",
      "note_on channel=0 note=50 velocity=0 time=0\n",
      "note_on channel=0 note=47 velocity=80 time=1\n",
      "note_on channel=0 note=47 velocity=0 time=479\n",
      "note_on channel=0 note=55 velocity=80 time=1\n",
      "note_on channel=0 note=53 velocity=80 time=0\n",
      "note_on channel=0 note=50 velocity=80 time=0\n",
      "note_on channel=0 note=55 velocity=0 time=479\n",
      "note_on channel=0 note=53 velocity=0 time=0\n",
      "note_on channel=0 note=50 velocity=0 time=0\n",
      "note_on channel=0 note=55 velocity=80 time=1\n",
      "note_on channel=0 note=53 velocity=80 time=0\n",
      "note_on channel=0 note=50 velocity=80 time=0\n",
      "note_on channel=0 note=55 velocity=0 time=479\n",
      "note_on channel=0 note=53 velocity=0 time=0\n",
      "note_on channel=0 note=50 velocity=0 time=0\n",
      "note_on channel=0 note=47 velocity=80 time=1\n",
      "note_on channel=0 note=47 velocity=0 time=479\n",
      "note_on channel=0 note=55 velocity=80 time=1\n",
      "note_on channel=0 note=53 velocity=80 time=0\n",
      "note_on channel=0 note=50 velocity=80 time=0\n",
      "note_on channel=0 note=55 velocity=0 time=479\n",
      "note_on channel=0 note=53 velocity=0 time=0\n",
      "note_on channel=0 note=50 velocity=0 time=0\n",
      "note_on channel=0 note=55 velocity=80 time=1\n",
      "note_on channel=0 note=53 velocity=80 time=0\n",
      "note_on channel=0 note=50 velocity=80 time=0\n",
      "note_on channel=0 note=55 velocity=0 time=479\n",
      "note_on channel=0 note=53 velocity=0 time=0\n",
      "note_on channel=0 note=50 velocity=0 time=0\n",
      "note_on channel=0 note=47 velocity=80 time=1\n",
      "note_on channel=0 note=47 velocity=0 time=479\n",
      "note_on channel=0 note=55 velocity=80 time=1\n",
      "note_on channel=0 note=53 velocity=80 time=0\n",
      "note_on channel=0 note=50 velocity=80 time=0\n",
      "note_on channel=0 note=55 velocity=0 time=479\n",
      "note_on channel=0 note=53 velocity=0 time=0\n",
      "note_on channel=0 note=50 velocity=0 time=0\n",
      "note_on channel=0 note=55 velocity=80 time=1\n",
      "note_on channel=0 note=53 velocity=80 time=0\n",
      "note_on channel=0 note=50 velocity=80 time=0\n",
      "note_on channel=0 note=55 velocity=0 time=479\n",
      "note_on channel=0 note=53 velocity=0 time=0\n",
      "note_on channel=0 note=50 velocity=0 time=0\n",
      "note_on channel=0 note=52 velocity=80 time=1\n",
      "note_on channel=0 note=52 velocity=0 time=479\n",
      "note_on channel=0 note=60 velocity=80 time=1\n",
      "note_on channel=0 note=55 velocity=80 time=0\n",
      "note_on channel=0 note=60 velocity=0 time=479\n",
      "note_on channel=0 note=55 velocity=0 time=0\n",
      "note_on channel=0 note=60 velocity=80 time=1\n",
      "note_on channel=0 note=55 velocity=80 time=0\n",
      "note_on channel=0 note=60 velocity=0 time=479\n",
      "note_on channel=0 note=55 velocity=0 time=0\n",
      "note_on channel=0 note=50 velocity=80 time=1\n",
      "note_on channel=0 note=50 velocity=0 time=479\n",
      "note_on channel=0 note=60 velocity=80 time=1\n",
      "note_on channel=0 note=55 velocity=80 time=0\n",
      "note_on channel=0 note=60 velocity=0 time=479\n",
      "note_on channel=0 note=55 velocity=0 time=0\n",
      "note_on channel=0 note=60 velocity=80 time=1\n",
      "note_on channel=0 note=55 velocity=80 time=0\n",
      "note_on channel=0 note=60 velocity=0 time=479\n",
      "note_on channel=0 note=55 velocity=0 time=0\n",
      "note_on channel=0 note=48 velocity=80 time=1\n",
      "note_on channel=0 note=48 velocity=0 time=479\n",
      "note_on channel=0 note=55 velocity=80 time=1\n",
      "note_on channel=0 note=52 velocity=80 time=0\n",
      "note_on channel=0 note=55 velocity=0 time=479\n",
      "note_on channel=0 note=52 velocity=0 time=0\n",
      "note_on channel=0 note=55 velocity=80 time=1\n",
      "note_on channel=0 note=52 velocity=80 time=0\n",
      "note_on channel=0 note=55 velocity=0 time=479\n",
      "note_on channel=0 note=52 velocity=0 time=0\n",
      "note_on channel=0 note=46 velocity=80 time=1\n",
      "note_on channel=0 note=46 velocity=0 time=479\n",
      "note_on channel=0 note=55 velocity=80 time=1\n",
      "note_on channel=0 note=52 velocity=80 time=0\n",
      "note_on channel=0 note=55 velocity=0 time=479\n",
      "note_on channel=0 note=52 velocity=0 time=0\n",
      "note_on channel=0 note=55 velocity=80 time=1\n",
      "note_on channel=0 note=52 velocity=80 time=0\n",
      "note_on channel=0 note=55 velocity=0 time=479\n",
      "note_on channel=0 note=52 velocity=0 time=0\n",
      "note_on channel=0 note=53 velocity=80 time=1\n",
      "note_on channel=0 note=53 velocity=0 time=479\n",
      "note_on channel=0 note=60 velocity=80 time=1\n",
      "note_on channel=0 note=57 velocity=80 time=0\n",
      "note_on channel=0 note=60 velocity=0 time=479\n",
      "note_on channel=0 note=57 velocity=0 time=0\n",
      "note_on channel=0 note=60 velocity=80 time=1\n",
      "note_on channel=0 note=57 velocity=80 time=0\n",
      "note_on channel=0 note=60 velocity=0 time=479\n",
      "note_on channel=0 note=57 velocity=0 time=0\n",
      "note_on channel=0 note=53 velocity=80 time=1\n",
      "note_on channel=0 note=53 velocity=0 time=479\n",
      "note_on channel=0 note=60 velocity=80 time=1\n",
      "note_on channel=0 note=57 velocity=80 time=0\n",
      "note_on channel=0 note=60 velocity=0 time=479\n",
      "note_on channel=0 note=57 velocity=0 time=0\n",
      "note_on channel=0 note=60 velocity=80 time=1\n",
      "note_on channel=0 note=57 velocity=80 time=0\n",
      "note_on channel=0 note=60 velocity=0 time=479\n",
      "note_on channel=0 note=57 velocity=0 time=0\n",
      "note_on channel=0 note=48 velocity=80 time=1\n",
      "note_on channel=0 note=48 velocity=0 time=479\n",
      "note_on channel=0 note=55 velocity=80 time=1\n",
      "note_on channel=0 note=52 velocity=80 time=0\n",
      "note_on channel=0 note=55 velocity=0 time=479\n",
      "note_on channel=0 note=52 velocity=0 time=0\n",
      "note_on channel=0 note=55 velocity=80 time=1\n",
      "note_on channel=0 note=52 velocity=80 time=0\n",
      "note_on channel=0 note=55 velocity=0 time=479\n",
      "note_on channel=0 note=52 velocity=0 time=0\n",
      "note_on channel=0 note=55 velocity=80 time=1\n",
      "note_on channel=0 note=52 velocity=80 time=0\n",
      "note_on channel=0 note=48 velocity=80 time=0\n",
      "note_on channel=0 note=55 velocity=0 time=1439\n",
      "note_on channel=0 note=52 velocity=0 time=0\n",
      "note_on channel=0 note=48 velocity=0 time=0\n",
      "note_on channel=0 note=53 velocity=80 time=1\n",
      "note_on channel=0 note=53 velocity=0 time=479\n",
      "note_on channel=0 note=60 velocity=80 time=1\n",
      "note_on channel=0 note=57 velocity=80 time=0\n",
      "note_on channel=0 note=60 velocity=0 time=479\n",
      "note_on channel=0 note=57 velocity=0 time=0\n",
      "note_on channel=0 note=60 velocity=80 time=1\n",
      "note_on channel=0 note=57 velocity=80 time=0\n",
      "note_on channel=0 note=60 velocity=0 time=479\n",
      "note_on channel=0 note=57 velocity=0 time=0\n",
      "note_on channel=0 note=48 velocity=80 time=1\n",
      "note_on channel=0 note=48 velocity=0 time=479\n",
      "note_on channel=0 note=60 velocity=80 time=1\n",
      "note_on channel=0 note=57 velocity=80 time=0\n",
      "note_on channel=0 note=60 velocity=0 time=479\n",
      "note_on channel=0 note=57 velocity=0 time=0\n",
      "note_on channel=0 note=60 velocity=80 time=1\n",
      "note_on channel=0 note=57 velocity=80 time=0\n",
      "note_on channel=0 note=60 velocity=0 time=479\n",
      "note_on channel=0 note=57 velocity=0 time=0\n",
      "note_on channel=0 note=50 velocity=80 time=1\n",
      "note_on channel=0 note=50 velocity=0 time=479\n",
      "note_on channel=0 note=60 velocity=80 time=1\n",
      "note_on channel=0 note=57 velocity=80 time=0\n",
      "note_on channel=0 note=60 velocity=0 time=479\n",
      "note_on channel=0 note=57 velocity=0 time=0\n",
      "note_on channel=0 note=60 velocity=80 time=1\n",
      "note_on channel=0 note=57 velocity=80 time=0\n",
      "note_on channel=0 note=60 velocity=0 time=479\n",
      "note_on channel=0 note=57 velocity=0 time=0\n",
      "note_on channel=0 note=48 velocity=80 time=1\n",
      "note_on channel=0 note=48 velocity=0 time=479\n",
      "note_on channel=0 note=60 velocity=80 time=1\n",
      "note_on channel=0 note=57 velocity=80 time=0\n",
      "note_on channel=0 note=60 velocity=0 time=479\n",
      "note_on channel=0 note=57 velocity=0 time=0\n",
      "note_on channel=0 note=60 velocity=80 time=1\n",
      "note_on channel=0 note=57 velocity=80 time=0\n",
      "note_on channel=0 note=60 velocity=0 time=479\n",
      "note_on channel=0 note=57 velocity=0 time=0\n",
      "note_on channel=0 note=47 velocity=80 time=1\n",
      "note_on channel=0 note=47 velocity=0 time=479\n",
      "note_on channel=0 note=55 velocity=80 time=1\n",
      "note_on channel=0 note=53 velocity=80 time=0\n",
      "note_on channel=0 note=50 velocity=80 time=0\n",
      "note_on channel=0 note=55 velocity=0 time=479\n",
      "note_on channel=0 note=53 velocity=0 time=0\n",
      "note_on channel=0 note=50 velocity=0 time=0\n",
      "note_on channel=0 note=55 velocity=80 time=1\n",
      "note_on channel=0 note=53 velocity=80 time=0\n",
      "note_on channel=0 note=50 velocity=80 time=0\n",
      "note_on channel=0 note=55 velocity=0 time=479\n",
      "note_on channel=0 note=53 velocity=0 time=0\n",
      "note_on channel=0 note=50 velocity=0 time=0\n",
      "note_on channel=0 note=47 velocity=80 time=1\n",
      "note_on channel=0 note=47 velocity=0 time=479\n",
      "note_on channel=0 note=55 velocity=80 time=1\n",
      "note_on channel=0 note=53 velocity=80 time=0\n",
      "note_on channel=0 note=50 velocity=80 time=0\n",
      "note_on channel=0 note=55 velocity=0 time=479\n",
      "note_on channel=0 note=53 velocity=0 time=0\n",
      "note_on channel=0 note=50 velocity=0 time=0\n",
      "note_on channel=0 note=55 velocity=80 time=1\n",
      "note_on channel=0 note=53 velocity=80 time=0\n",
      "note_on channel=0 note=50 velocity=80 time=0\n",
      "note_on channel=0 note=55 velocity=0 time=479\n",
      "note_on channel=0 note=53 velocity=0 time=0\n",
      "note_on channel=0 note=50 velocity=0 time=0\n",
      "note_on channel=0 note=47 velocity=80 time=1\n",
      "note_on channel=0 note=47 velocity=0 time=479\n",
      "note_on channel=0 note=55 velocity=80 time=1\n",
      "note_on channel=0 note=53 velocity=80 time=0\n",
      "note_on channel=0 note=50 velocity=80 time=0\n",
      "note_on channel=0 note=55 velocity=0 time=479\n",
      "note_on channel=0 note=53 velocity=0 time=0\n",
      "note_on channel=0 note=50 velocity=0 time=0\n",
      "note_on channel=0 note=55 velocity=80 time=1\n",
      "note_on channel=0 note=53 velocity=80 time=0\n",
      "note_on channel=0 note=50 velocity=80 time=0\n",
      "note_on channel=0 note=55 velocity=0 time=479\n",
      "note_on channel=0 note=53 velocity=0 time=0\n",
      "note_on channel=0 note=50 velocity=0 time=0\n",
      "note_on channel=0 note=47 velocity=80 time=1\n",
      "note_on channel=0 note=47 velocity=0 time=479\n",
      "note_on channel=0 note=55 velocity=80 time=1\n",
      "note_on channel=0 note=53 velocity=80 time=0\n",
      "note_on channel=0 note=50 velocity=80 time=0\n",
      "note_on channel=0 note=55 velocity=0 time=479\n",
      "note_on channel=0 note=53 velocity=0 time=0\n",
      "note_on channel=0 note=50 velocity=0 time=0\n",
      "note_on channel=0 note=55 velocity=80 time=1\n",
      "note_on channel=0 note=53 velocity=80 time=0\n",
      "note_on channel=0 note=50 velocity=80 time=0\n",
      "note_on channel=0 note=55 velocity=0 time=479\n",
      "note_on channel=0 note=53 velocity=0 time=0\n",
      "note_on channel=0 note=50 velocity=0 time=0\n",
      "note_on channel=0 note=52 velocity=80 time=1\n",
      "note_on channel=0 note=52 velocity=0 time=479\n",
      "note_on channel=0 note=60 velocity=80 time=1\n",
      "note_on channel=0 note=55 velocity=80 time=0\n",
      "note_on channel=0 note=60 velocity=0 time=479\n",
      "note_on channel=0 note=55 velocity=0 time=0\n",
      "note_on channel=0 note=60 velocity=80 time=1\n",
      "note_on channel=0 note=55 velocity=80 time=0\n",
      "note_on channel=0 note=60 velocity=0 time=479\n",
      "note_on channel=0 note=55 velocity=0 time=0\n",
      "note_on channel=0 note=50 velocity=80 time=1\n",
      "note_on channel=0 note=50 velocity=0 time=479\n",
      "note_on channel=0 note=60 velocity=80 time=1\n",
      "note_on channel=0 note=55 velocity=80 time=0\n",
      "note_on channel=0 note=60 velocity=0 time=479\n",
      "note_on channel=0 note=55 velocity=0 time=0\n",
      "note_on channel=0 note=60 velocity=80 time=1\n",
      "note_on channel=0 note=55 velocity=80 time=0\n",
      "note_on channel=0 note=60 velocity=0 time=479\n",
      "note_on channel=0 note=55 velocity=0 time=0\n",
      "note_on channel=0 note=48 velocity=80 time=1\n",
      "note_on channel=0 note=48 velocity=0 time=479\n",
      "note_on channel=0 note=55 velocity=80 time=1\n",
      "note_on channel=0 note=52 velocity=80 time=0\n",
      "note_on channel=0 note=55 velocity=0 time=479\n",
      "note_on channel=0 note=52 velocity=0 time=0\n",
      "note_on channel=0 note=55 velocity=80 time=1\n",
      "note_on channel=0 note=52 velocity=80 time=0\n",
      "note_on channel=0 note=55 velocity=0 time=479\n",
      "note_on channel=0 note=52 velocity=0 time=0\n",
      "note_on channel=0 note=46 velocity=80 time=1\n",
      "note_on channel=0 note=46 velocity=0 time=479\n",
      "note_on channel=0 note=55 velocity=80 time=1\n",
      "note_on channel=0 note=52 velocity=80 time=0\n",
      "note_on channel=0 note=55 velocity=0 time=479\n",
      "note_on channel=0 note=52 velocity=0 time=0\n",
      "note_on channel=0 note=55 velocity=80 time=1\n",
      "note_on channel=0 note=52 velocity=80 time=0\n",
      "note_on channel=0 note=55 velocity=0 time=479\n",
      "note_on channel=0 note=52 velocity=0 time=0\n",
      "note_on channel=0 note=53 velocity=80 time=1\n",
      "note_on channel=0 note=53 velocity=0 time=479\n",
      "note_on channel=0 note=60 velocity=80 time=1\n",
      "note_on channel=0 note=57 velocity=80 time=0\n",
      "note_on channel=0 note=60 velocity=0 time=479\n",
      "note_on channel=0 note=57 velocity=0 time=0\n",
      "note_on channel=0 note=60 velocity=80 time=1\n",
      "note_on channel=0 note=57 velocity=80 time=0\n",
      "note_on channel=0 note=60 velocity=0 time=479\n",
      "note_on channel=0 note=57 velocity=0 time=0\n",
      "note_on channel=0 note=53 velocity=80 time=1\n",
      "note_on channel=0 note=53 velocity=0 time=479\n",
      "note_on channel=0 note=60 velocity=80 time=1\n",
      "note_on channel=0 note=57 velocity=80 time=0\n",
      "note_on channel=0 note=60 velocity=0 time=479\n",
      "note_on channel=0 note=57 velocity=0 time=0\n",
      "note_on channel=0 note=60 velocity=80 time=1\n",
      "note_on channel=0 note=57 velocity=80 time=0\n",
      "note_on channel=0 note=60 velocity=0 time=479\n",
      "note_on channel=0 note=57 velocity=0 time=0\n",
      "note_on channel=0 note=48 velocity=80 time=1\n",
      "note_on channel=0 note=48 velocity=0 time=479\n",
      "note_on channel=0 note=55 velocity=80 time=1\n",
      "note_on channel=0 note=52 velocity=80 time=0\n",
      "note_on channel=0 note=55 velocity=0 time=479\n",
      "note_on channel=0 note=52 velocity=0 time=0\n",
      "note_on channel=0 note=55 velocity=80 time=1\n",
      "note_on channel=0 note=52 velocity=80 time=0\n",
      "note_on channel=0 note=55 velocity=0 time=479\n",
      "note_on channel=0 note=52 velocity=0 time=0\n",
      "note_on channel=0 note=55 velocity=80 time=1\n",
      "note_on channel=0 note=52 velocity=80 time=0\n",
      "note_on channel=0 note=48 velocity=80 time=0\n",
      "note_on channel=0 note=55 velocity=0 time=1439\n",
      "note_on channel=0 note=52 velocity=0 time=0\n",
      "note_on channel=0 note=48 velocity=0 time=0\n",
      "note_on channel=0 note=53 velocity=80 time=1\n",
      "note_on channel=0 note=53 velocity=0 time=479\n",
      "note_on channel=0 note=60 velocity=80 time=1\n",
      "note_on channel=0 note=57 velocity=80 time=0\n",
      "note_on channel=0 note=60 velocity=0 time=479\n",
      "note_on channel=0 note=57 velocity=0 time=0\n",
      "note_on channel=0 note=60 velocity=80 time=1\n",
      "note_on channel=0 note=57 velocity=80 time=0\n",
      "note_on channel=0 note=60 velocity=0 time=479\n",
      "note_on channel=0 note=57 velocity=0 time=0\n",
      "note_on channel=0 note=48 velocity=80 time=1\n",
      "note_on channel=0 note=48 velocity=0 time=479\n",
      "note_on channel=0 note=60 velocity=80 time=1\n",
      "note_on channel=0 note=57 velocity=80 time=0\n",
      "note_on channel=0 note=60 velocity=0 time=479\n",
      "note_on channel=0 note=57 velocity=0 time=0\n",
      "note_on channel=0 note=60 velocity=80 time=1\n",
      "note_on channel=0 note=57 velocity=80 time=0\n",
      "note_on channel=0 note=60 velocity=0 time=479\n",
      "note_on channel=0 note=57 velocity=0 time=0\n",
      "note_on channel=0 note=50 velocity=80 time=1\n",
      "note_on channel=0 note=50 velocity=0 time=479\n",
      "note_on channel=0 note=60 velocity=80 time=1\n",
      "note_on channel=0 note=57 velocity=80 time=0\n",
      "note_on channel=0 note=60 velocity=0 time=479\n",
      "note_on channel=0 note=57 velocity=0 time=0\n",
      "note_on channel=0 note=60 velocity=80 time=1\n",
      "note_on channel=0 note=57 velocity=80 time=0\n",
      "note_on channel=0 note=60 velocity=0 time=479\n",
      "note_on channel=0 note=57 velocity=0 time=0\n",
      "note_on channel=0 note=48 velocity=80 time=1\n",
      "note_on channel=0 note=48 velocity=0 time=479\n",
      "note_on channel=0 note=60 velocity=80 time=1\n",
      "note_on channel=0 note=57 velocity=80 time=0\n",
      "note_on channel=0 note=60 velocity=0 time=479\n",
      "note_on channel=0 note=57 velocity=0 time=0\n",
      "note_on channel=0 note=60 velocity=80 time=1\n",
      "note_on channel=0 note=57 velocity=80 time=0\n",
      "note_on channel=0 note=60 velocity=0 time=479\n",
      "note_on channel=0 note=57 velocity=0 time=0\n",
      "note_on channel=0 note=47 velocity=80 time=1\n",
      "note_on channel=0 note=47 velocity=0 time=479\n",
      "note_on channel=0 note=55 velocity=80 time=1\n",
      "note_on channel=0 note=53 velocity=80 time=0\n",
      "note_on channel=0 note=50 velocity=80 time=0\n",
      "note_on channel=0 note=55 velocity=0 time=479\n",
      "note_on channel=0 note=53 velocity=0 time=0\n",
      "note_on channel=0 note=50 velocity=0 time=0\n",
      "note_on channel=0 note=55 velocity=80 time=1\n",
      "note_on channel=0 note=53 velocity=80 time=0\n",
      "note_on channel=0 note=50 velocity=80 time=0\n",
      "note_on channel=0 note=55 velocity=0 time=479\n",
      "note_on channel=0 note=53 velocity=0 time=0\n",
      "note_on channel=0 note=50 velocity=0 time=0\n",
      "note_on channel=0 note=47 velocity=80 time=1\n",
      "note_on channel=0 note=47 velocity=0 time=479\n",
      "note_on channel=0 note=55 velocity=80 time=1\n",
      "note_on channel=0 note=53 velocity=80 time=0\n",
      "note_on channel=0 note=50 velocity=80 time=0\n",
      "note_on channel=0 note=55 velocity=0 time=479\n",
      "note_on channel=0 note=53 velocity=0 time=0\n",
      "note_on channel=0 note=50 velocity=0 time=0\n",
      "note_on channel=0 note=55 velocity=80 time=1\n",
      "note_on channel=0 note=53 velocity=80 time=0\n",
      "note_on channel=0 note=50 velocity=80 time=0\n",
      "note_on channel=0 note=55 velocity=0 time=479\n",
      "note_on channel=0 note=53 velocity=0 time=0\n",
      "note_on channel=0 note=50 velocity=0 time=0\n",
      "note_on channel=0 note=47 velocity=80 time=1\n",
      "note_on channel=0 note=47 velocity=0 time=479\n",
      "note_on channel=0 note=55 velocity=80 time=1\n",
      "note_on channel=0 note=53 velocity=80 time=0\n",
      "note_on channel=0 note=50 velocity=80 time=0\n",
      "note_on channel=0 note=55 velocity=0 time=479\n",
      "note_on channel=0 note=53 velocity=0 time=0\n",
      "note_on channel=0 note=50 velocity=0 time=0\n",
      "note_on channel=0 note=55 velocity=80 time=1\n",
      "note_on channel=0 note=53 velocity=80 time=0\n",
      "note_on channel=0 note=50 velocity=80 time=0\n",
      "note_on channel=0 note=55 velocity=0 time=479\n",
      "note_on channel=0 note=53 velocity=0 time=0\n",
      "note_on channel=0 note=50 velocity=0 time=0\n",
      "note_on channel=0 note=47 velocity=80 time=1\n",
      "note_on channel=0 note=47 velocity=0 time=479\n",
      "note_on channel=0 note=55 velocity=80 time=1\n",
      "note_on channel=0 note=53 velocity=80 time=0\n",
      "note_on channel=0 note=50 velocity=80 time=0\n",
      "note_on channel=0 note=55 velocity=0 time=479\n",
      "note_on channel=0 note=53 velocity=0 time=0\n",
      "note_on channel=0 note=50 velocity=0 time=0\n",
      "note_on channel=0 note=55 velocity=80 time=1\n",
      "note_on channel=0 note=53 velocity=80 time=0\n",
      "note_on channel=0 note=50 velocity=80 time=0\n",
      "note_on channel=0 note=55 velocity=0 time=479\n",
      "note_on channel=0 note=53 velocity=0 time=0\n",
      "note_on channel=0 note=50 velocity=0 time=0\n",
      "note_on channel=0 note=60 velocity=80 time=1\n",
      "note_on channel=0 note=55 velocity=80 time=0\n",
      "note_on channel=0 note=52 velocity=80 time=0\n",
      "note_on channel=0 note=60 velocity=0 time=1439\n",
      "note_on channel=0 note=55 velocity=0 time=0\n",
      "note_on channel=0 note=52 velocity=0 time=0\n",
      "note_on channel=0 note=60 velocity=80 time=1\n",
      "note_on channel=0 note=55 velocity=80 time=0\n",
      "note_on channel=0 note=50 velocity=80 time=0\n",
      "note_on channel=0 note=60 velocity=0 time=1439\n",
      "note_on channel=0 note=55 velocity=0 time=0\n",
      "note_on channel=0 note=50 velocity=0 time=0\n",
      "note_on channel=0 note=55 velocity=80 time=1\n",
      "note_on channel=0 note=52 velocity=80 time=0\n",
      "note_on channel=0 note=48 velocity=80 time=0\n",
      "note_on channel=0 note=55 velocity=0 time=1439\n",
      "note_on channel=0 note=52 velocity=0 time=0\n",
      "note_on channel=0 note=48 velocity=0 time=0\n",
      "note_on channel=0 note=55 velocity=80 time=1\n",
      "note_on channel=0 note=52 velocity=80 time=0\n",
      "note_on channel=0 note=46 velocity=80 time=0\n",
      "note_on channel=0 note=55 velocity=0 time=1439\n",
      "note_on channel=0 note=52 velocity=0 time=0\n",
      "note_on channel=0 note=46 velocity=0 time=0\n",
      "note_on channel=0 note=48 velocity=80 time=1\n",
      "note_on channel=0 note=48 velocity=0 time=479\n",
      "note_on channel=0 note=55 velocity=80 time=1\n",
      "note_on channel=0 note=52 velocity=80 time=0\n",
      "note_on channel=0 note=55 velocity=0 time=479\n",
      "note_on channel=0 note=52 velocity=0 time=0\n",
      "note_on channel=0 note=55 velocity=80 time=1\n",
      "note_on channel=0 note=52 velocity=80 time=0\n",
      "note_on channel=0 note=55 velocity=0 time=479\n",
      "note_on channel=0 note=52 velocity=0 time=0\n",
      "note_on channel=0 note=43 velocity=80 time=1\n",
      "note_on channel=0 note=43 velocity=0 time=479\n",
      "note_on channel=0 note=55 velocity=80 time=1\n",
      "note_on channel=0 note=52 velocity=80 time=0\n",
      "note_on channel=0 note=55 velocity=0 time=479\n",
      "note_on channel=0 note=52 velocity=0 time=0\n",
      "note_on channel=0 note=55 velocity=80 time=1\n",
      "note_on channel=0 note=52 velocity=80 time=0\n",
      "note_on channel=0 note=55 velocity=0 time=479\n",
      "note_on channel=0 note=52 velocity=0 time=0\n",
      "note_on channel=0 note=48 velocity=80 time=1\n",
      "note_on channel=0 note=48 velocity=0 time=479\n",
      "note_on channel=0 note=55 velocity=80 time=1\n",
      "note_on channel=0 note=52 velocity=80 time=0\n",
      "note_on channel=0 note=55 velocity=0 time=479\n",
      "note_on channel=0 note=52 velocity=0 time=0\n",
      "note_on channel=0 note=55 velocity=80 time=1\n",
      "note_on channel=0 note=52 velocity=80 time=0\n",
      "note_on channel=0 note=55 velocity=0 time=479\n",
      "note_on channel=0 note=52 velocity=0 time=0\n",
      "note_on channel=0 note=43 velocity=80 time=1\n",
      "note_on channel=0 note=43 velocity=0 time=479\n",
      "note_on channel=0 note=55 velocity=80 time=1\n",
      "note_on channel=0 note=52 velocity=80 time=0\n",
      "note_on channel=0 note=55 velocity=0 time=479\n",
      "note_on channel=0 note=52 velocity=0 time=0\n",
      "note_on channel=0 note=55 velocity=80 time=1\n",
      "note_on channel=0 note=52 velocity=80 time=0\n",
      "note_on channel=0 note=55 velocity=0 time=479\n",
      "note_on channel=0 note=52 velocity=0 time=0\n",
      "note_on channel=0 note=41 velocity=80 time=1\n",
      "note_on channel=0 note=41 velocity=0 time=479\n",
      "note_on channel=0 note=57 velocity=80 time=1\n",
      "note_on channel=0 note=53 velocity=80 time=0\n",
      "note_on channel=0 note=57 velocity=0 time=479\n",
      "note_on channel=0 note=53 velocity=0 time=0\n",
      "note_on channel=0 note=57 velocity=80 time=1\n",
      "note_on channel=0 note=53 velocity=80 time=0\n",
      "note_on channel=0 note=57 velocity=0 time=479\n",
      "note_on channel=0 note=53 velocity=0 time=0\n",
      "note_on channel=0 note=48 velocity=80 time=1\n",
      "note_on channel=0 note=48 velocity=0 time=479\n",
      "note_on channel=0 note=57 velocity=80 time=1\n",
      "note_on channel=0 note=53 velocity=80 time=0\n",
      "note_on channel=0 note=57 velocity=0 time=479\n",
      "note_on channel=0 note=53 velocity=0 time=0\n",
      "note_on channel=0 note=57 velocity=80 time=1\n",
      "note_on channel=0 note=53 velocity=80 time=0\n",
      "note_on channel=0 note=57 velocity=0 time=479\n",
      "note_on channel=0 note=53 velocity=0 time=0\n",
      "note_on channel=0 note=41 velocity=80 time=1\n",
      "note_on channel=0 note=41 velocity=0 time=479\n",
      "note_on channel=0 note=57 velocity=80 time=1\n",
      "note_on channel=0 note=53 velocity=80 time=0\n",
      "note_on channel=0 note=57 velocity=0 time=479\n",
      "note_on channel=0 note=53 velocity=0 time=0\n",
      "note_on channel=0 note=57 velocity=80 time=1\n",
      "note_on channel=0 note=53 velocity=80 time=0\n",
      "note_on channel=0 note=57 velocity=0 time=479\n",
      "note_on channel=0 note=53 velocity=0 time=0\n",
      "note_on channel=0 note=38 velocity=80 time=1\n",
      "note_on channel=0 note=38 velocity=0 time=479\n",
      "note_on channel=0 note=59 velocity=80 time=1\n",
      "note_on channel=0 note=53 velocity=80 time=0\n",
      "note_on channel=0 note=59 velocity=0 time=479\n",
      "note_on channel=0 note=53 velocity=0 time=0\n",
      "note_on channel=0 note=59 velocity=80 time=1\n",
      "note_on channel=0 note=53 velocity=80 time=0\n",
      "note_on channel=0 note=59 velocity=0 time=479\n",
      "note_on channel=0 note=53 velocity=0 time=0\n",
      "note_on channel=0 note=47 velocity=64 time=1\n",
      "note_on channel=0 note=47 velocity=0 time=479\n",
      "note_on channel=0 note=59 velocity=64 time=1\n",
      "note_on channel=0 note=53 velocity=64 time=0\n",
      "note_on channel=0 note=59 velocity=0 time=2399\n",
      "note_on channel=0 note=53 velocity=0 time=0\n",
      "note_on channel=0 note=50 velocity=64 time=1\n",
      "note_on channel=0 note=50 velocity=0 time=479\n",
      "note_on channel=0 note=59 velocity=64 time=1\n",
      "note_on channel=0 note=53 velocity=64 time=0\n",
      "note_on channel=0 note=59 velocity=0 time=2399\n",
      "note_on channel=0 note=53 velocity=0 time=0\n",
      "note_on channel=0 note=60 velocity=64 time=1\n",
      "note_on channel=0 note=55 velocity=64 time=0\n",
      "note_on channel=0 note=52 velocity=64 time=0\n",
      "note_on channel=0 note=60 velocity=0 time=2879\n",
      "note_on channel=0 note=55 velocity=0 time=0\n",
      "note_on channel=0 note=52 velocity=0 time=0\n",
      "note_on channel=0 note=64 velocity=64 time=1\n",
      "note_on channel=0 note=60 velocity=64 time=0\n",
      "note_on channel=0 note=57 velocity=64 time=0\n",
      "note_on channel=0 note=64 velocity=0 time=2879\n",
      "note_on channel=0 note=60 velocity=0 time=0\n",
      "note_on channel=0 note=57 velocity=0 time=0\n",
      "note_on channel=0 note=53 velocity=64 time=1\n",
      "note_on channel=0 note=53 velocity=0 time=479\n",
      "note_on channel=0 note=60 velocity=64 time=1\n",
      "note_on channel=0 note=57 velocity=64 time=0\n",
      "note_on channel=0 note=60 velocity=0 time=959\n",
      "note_on channel=0 note=57 velocity=0 time=0\n",
      "note_on channel=0 note=48 velocity=64 time=1\n",
      "note_on channel=0 note=48 velocity=0 time=479\n",
      "note_on channel=0 note=60 velocity=64 time=1\n",
      "note_on channel=0 note=57 velocity=64 time=0\n",
      "note_on channel=0 note=60 velocity=0 time=959\n",
      "note_on channel=0 note=57 velocity=0 time=0\n",
      "note_on channel=0 note=50 velocity=64 time=1\n",
      "note_on channel=0 note=50 velocity=0 time=479\n",
      "note_on channel=0 note=60 velocity=64 time=1\n",
      "note_on channel=0 note=57 velocity=64 time=0\n",
      "note_on channel=0 note=60 velocity=0 time=959\n",
      "note_on channel=0 note=57 velocity=0 time=0\n",
      "note_on channel=0 note=48 velocity=64 time=1\n",
      "note_on channel=0 note=48 velocity=0 time=479\n",
      "note_on channel=0 note=60 velocity=64 time=1\n",
      "note_on channel=0 note=57 velocity=64 time=0\n",
      "note_on channel=0 note=60 velocity=0 time=959\n",
      "note_on channel=0 note=57 velocity=0 time=0\n",
      "note_on channel=0 note=47 velocity=64 time=1\n",
      "note_on channel=0 note=47 velocity=0 time=479\n",
      "note_on channel=0 note=59 velocity=64 time=1\n",
      "note_on channel=0 note=55 velocity=64 time=0\n",
      "note_on channel=0 note=59 velocity=0 time=959\n",
      "note_on channel=0 note=55 velocity=0 time=0\n",
      "note_on channel=0 note=43 velocity=64 time=1\n",
      "note_on channel=0 note=43 velocity=0 time=479\n",
      "note_on channel=0 note=59 velocity=64 time=1\n",
      "note_on channel=0 note=55 velocity=64 time=0\n",
      "note_on channel=0 note=59 velocity=0 time=959\n",
      "note_on channel=0 note=55 velocity=0 time=0\n",
      "note_on channel=0 note=47 velocity=64 time=1\n",
      "note_on channel=0 note=47 velocity=0 time=479\n",
      "note_on channel=0 note=59 velocity=64 time=1\n",
      "note_on channel=0 note=55 velocity=64 time=0\n",
      "note_on channel=0 note=59 velocity=0 time=959\n",
      "note_on channel=0 note=55 velocity=0 time=0\n",
      "note_on channel=0 note=50 velocity=64 time=1\n",
      "note_on channel=0 note=50 velocity=0 time=479\n",
      "note_on channel=0 note=59 velocity=64 time=1\n",
      "note_on channel=0 note=55 velocity=64 time=0\n",
      "note_on channel=0 note=59 velocity=0 time=959\n",
      "note_on channel=0 note=55 velocity=0 time=0\n",
      "note_on channel=0 note=52 velocity=64 time=1\n",
      "note_on channel=0 note=52 velocity=0 time=479\n",
      "note_on channel=0 note=60 velocity=64 time=1\n",
      "note_on channel=0 note=55 velocity=64 time=0\n",
      "note_on channel=0 note=60 velocity=0 time=959\n",
      "note_on channel=0 note=55 velocity=0 time=0\n",
      "note_on channel=0 note=50 velocity=64 time=1\n",
      "note_on channel=0 note=50 velocity=0 time=479\n",
      "note_on channel=0 note=60 velocity=64 time=1\n",
      "note_on channel=0 note=55 velocity=64 time=0\n",
      "note_on channel=0 note=60 velocity=0 time=959\n",
      "note_on channel=0 note=55 velocity=0 time=0\n",
      "note_on channel=0 note=48 velocity=64 time=1\n",
      "note_on channel=0 note=48 velocity=0 time=479\n",
      "note_on channel=0 note=55 velocity=64 time=1\n",
      "note_on channel=0 note=52 velocity=64 time=0\n",
      "note_on channel=0 note=55 velocity=0 time=959\n",
      "note_on channel=0 note=52 velocity=0 time=0\n",
      "note_on channel=0 note=46 velocity=64 time=1\n",
      "note_on channel=0 note=46 velocity=0 time=1439\n",
      "note_on channel=0 note=60 velocity=64 time=1\n",
      "note_on channel=0 note=57 velocity=64 time=0\n",
      "note_on channel=0 note=53 velocity=64 time=0\n",
      "note_on channel=0 note=60 velocity=0 time=2879\n",
      "note_on channel=0 note=57 velocity=0 time=0\n",
      "note_on channel=0 note=53 velocity=0 time=0\n",
      "note_on channel=0 note=55 velocity=80 time=1\n",
      "note_on channel=0 note=52 velocity=80 time=0\n",
      "note_on channel=0 note=48 velocity=80 time=0\n",
      "note_on channel=0 note=55 velocity=0 time=2879\n",
      "note_on channel=0 note=52 velocity=0 time=0\n",
      "note_on channel=0 note=48 velocity=0 time=0\n",
      "note_on channel=0 note=53 velocity=64 time=1\n",
      "note_on channel=0 note=53 velocity=0 time=479\n",
      "note_on channel=0 note=60 velocity=64 time=1\n",
      "note_on channel=0 note=57 velocity=64 time=0\n",
      "note_on channel=0 note=60 velocity=0 time=479\n",
      "note_on channel=0 note=57 velocity=0 time=0\n",
      "note_on channel=0 note=60 velocity=64 time=1\n",
      "note_on channel=0 note=57 velocity=64 time=0\n",
      "note_on channel=0 note=60 velocity=0 time=479\n",
      "note_on channel=0 note=57 velocity=0 time=0\n",
      "note_on channel=0 note=48 velocity=64 time=1\n",
      "note_on channel=0 note=48 velocity=0 time=479\n",
      "note_on channel=0 note=60 velocity=64 time=1\n",
      "note_on channel=0 note=57 velocity=64 time=0\n",
      "note_on channel=0 note=60 velocity=0 time=479\n",
      "note_on channel=0 note=57 velocity=0 time=0\n",
      "note_on channel=0 note=60 velocity=64 time=1\n",
      "note_on channel=0 note=57 velocity=64 time=0\n",
      "note_on channel=0 note=60 velocity=0 time=479\n",
      "note_on channel=0 note=57 velocity=0 time=0\n",
      "note_on channel=0 note=50 velocity=64 time=1\n",
      "note_on channel=0 note=50 velocity=0 time=359\n",
      "note_on channel=0 note=60 velocity=64 time=1\n",
      "note_on channel=0 note=57 velocity=64 time=0\n",
      "note_on channel=0 note=60 velocity=0 time=119\n",
      "note_on channel=0 note=57 velocity=0 time=0\n",
      "note_on channel=0 note=60 velocity=64 time=1\n",
      "note_on channel=0 note=57 velocity=64 time=0\n",
      "note_on channel=0 note=60 velocity=0 time=479\n",
      "note_on channel=0 note=57 velocity=0 time=0\n",
      "note_on channel=0 note=60 velocity=64 time=1\n",
      "note_on channel=0 note=57 velocity=64 time=0\n",
      "note_on channel=0 note=60 velocity=0 time=479\n",
      "note_on channel=0 note=57 velocity=0 time=0\n",
      "note_on channel=0 note=48 velocity=64 time=1\n",
      "note_on channel=0 note=48 velocity=0 time=479\n",
      "note_on channel=0 note=60 velocity=64 time=1\n",
      "note_on channel=0 note=57 velocity=64 time=0\n",
      "note_on channel=0 note=60 velocity=0 time=1919\n",
      "note_on channel=0 note=57 velocity=0 time=0\n",
      "note_on channel=0 note=65 velocity=64 time=1\n",
      "note_on channel=0 note=65 velocity=0 time=239\n",
      "note_on channel=0 note=64 velocity=64 time=1\n",
      "note_on channel=0 note=64 velocity=0 time=1679\n",
      "note_on channel=0 note=65 velocity=64 time=1\n",
      "note_on channel=0 note=65 velocity=0 time=1919\n",
      "note_on channel=0 note=60 velocity=64 time=961\n",
      "note_on channel=0 note=57 velocity=64 time=0\n",
      "note_on channel=0 note=53 velocity=64 time=0\n",
      "note_on channel=0 note=60 velocity=0 time=1439\n",
      "note_on channel=0 note=57 velocity=0 time=0\n",
      "note_on channel=0 note=53 velocity=0 time=0\n",
      "note_on channel=0 note=60 velocity=64 time=1\n",
      "note_on channel=0 note=57 velocity=64 time=0\n",
      "note_on channel=0 note=52 velocity=64 time=0\n",
      "note_on channel=0 note=60 velocity=0 time=1439\n",
      "note_on channel=0 note=57 velocity=0 time=0\n",
      "note_on channel=0 note=52 velocity=0 time=0\n",
      "note_on channel=0 note=60 velocity=64 time=1\n",
      "note_on channel=0 note=57 velocity=64 time=0\n",
      "note_on channel=0 note=53 velocity=64 time=0\n",
      "note_on channel=0 note=60 velocity=0 time=1439\n",
      "note_on channel=0 note=57 velocity=0 time=0\n",
      "note_on channel=0 note=53 velocity=0 time=0\n",
      "note_on channel=0 note=60 velocity=64 time=1\n",
      "note_on channel=0 note=57 velocity=64 time=0\n",
      "note_on channel=0 note=51 velocity=64 time=0\n",
      "note_on channel=0 note=60 velocity=0 time=1439\n",
      "note_on channel=0 note=57 velocity=0 time=0\n",
      "note_on channel=0 note=51 velocity=0 time=0\n",
      "note_on channel=0 note=59 velocity=64 time=1\n",
      "note_on channel=0 note=55 velocity=64 time=0\n",
      "note_on channel=0 note=50 velocity=64 time=0\n",
      "note_on channel=0 note=59 velocity=0 time=1439\n",
      "note_on channel=0 note=55 velocity=0 time=0\n",
      "note_on channel=0 note=50 velocity=0 time=0\n",
      "note_on channel=0 note=55 velocity=64 time=1\n",
      "note_on channel=0 note=50 velocity=64 time=0\n",
      "note_on channel=0 note=55 velocity=0 time=1439\n",
      "note_on channel=0 note=50 velocity=0 time=0\n",
      "note_on channel=0 note=59 velocity=64 time=1\n",
      "note_on channel=0 note=55 velocity=64 time=0\n",
      "note_on channel=0 note=50 velocity=64 time=0\n",
      "note_on channel=0 note=59 velocity=0 time=1439\n",
      "note_on channel=0 note=55 velocity=0 time=0\n",
      "note_on channel=0 note=50 velocity=0 time=0\n",
      "note_on channel=0 note=55 velocity=64 time=1\n",
      "note_on channel=0 note=50 velocity=64 time=0\n",
      "note_on channel=0 note=55 velocity=0 time=1439\n",
      "note_on channel=0 note=50 velocity=0 time=0\n",
      "note_on channel=0 note=60 velocity=64 time=1\n",
      "note_on channel=0 note=55 velocity=64 time=0\n",
      "note_on channel=0 note=52 velocity=64 time=0\n",
      "note_on channel=0 note=60 velocity=0 time=1439\n",
      "note_on channel=0 note=55 velocity=0 time=0\n",
      "note_on channel=0 note=52 velocity=0 time=0\n",
      "note_on channel=0 note=60 velocity=64 time=1\n",
      "note_on channel=0 note=55 velocity=64 time=0\n",
      "note_on channel=0 note=50 velocity=64 time=0\n",
      "note_on channel=0 note=60 velocity=0 time=1439\n",
      "note_on channel=0 note=55 velocity=0 time=0\n",
      "note_on channel=0 note=50 velocity=0 time=0\n",
      "note_on channel=0 note=55 velocity=64 time=1\n",
      "note_on channel=0 note=52 velocity=64 time=0\n",
      "note_on channel=0 note=48 velocity=64 time=0\n",
      "note_on channel=0 note=55 velocity=0 time=1439\n",
      "note_on channel=0 note=52 velocity=0 time=0\n",
      "note_on channel=0 note=48 velocity=0 time=0\n",
      "note_on channel=0 note=55 velocity=64 time=1\n",
      "note_on channel=0 note=52 velocity=64 time=0\n",
      "note_on channel=0 note=46 velocity=64 time=0\n",
      "note_on channel=0 note=55 velocity=0 time=1439\n",
      "note_on channel=0 note=52 velocity=0 time=0\n",
      "note_on channel=0 note=46 velocity=0 time=0\n",
      "note_on channel=0 note=60 velocity=64 time=1\n",
      "note_on channel=0 note=57 velocity=64 time=0\n"
     ]
    },
    {
     "name": "stdout",
     "output_type": "stream",
     "text": [
      "note_on channel=0 note=53 velocity=64 time=0\n",
      "note_on channel=0 note=60 velocity=0 time=2879\n",
      "note_on channel=0 note=57 velocity=0 time=0\n",
      "note_on channel=0 note=53 velocity=0 time=0\n",
      "note_on channel=0 note=60 velocity=64 time=1\n",
      "note_on channel=0 note=55 velocity=64 time=0\n",
      "note_on channel=0 note=52 velocity=64 time=0\n",
      "note_on channel=0 note=60 velocity=0 time=2879\n",
      "note_on channel=0 note=55 velocity=0 time=0\n",
      "note_on channel=0 note=52 velocity=0 time=0\n",
      "note_on channel=0 note=77 velocity=33 time=1\n",
      "note_on channel=0 note=69 velocity=33 time=0\n",
      "note_on channel=0 note=77 velocity=0 time=1439\n",
      "note_on channel=0 note=69 velocity=0 time=0\n",
      "note_on channel=0 note=76 velocity=33 time=1\n",
      "note_on channel=0 note=69 velocity=33 time=0\n",
      "note_on channel=0 note=76 velocity=0 time=1439\n",
      "note_on channel=0 note=69 velocity=0 time=0\n",
      "note_on channel=0 note=77 velocity=33 time=1\n",
      "note_on channel=0 note=69 velocity=33 time=0\n",
      "note_on channel=0 note=77 velocity=0 time=1439\n",
      "note_on channel=0 note=69 velocity=0 time=0\n",
      "note_on channel=0 note=76 velocity=33 time=1\n",
      "note_on channel=0 note=69 velocity=33 time=0\n",
      "note_on channel=0 note=76 velocity=0 time=1439\n",
      "note_on channel=0 note=69 velocity=0 time=0\n",
      "note_on channel=0 note=77 velocity=33 time=1\n",
      "note_on channel=0 note=69 velocity=33 time=0\n",
      "note_on channel=0 note=77 velocity=0 time=1439\n",
      "note_on channel=0 note=69 velocity=0 time=0\n",
      "note_on channel=0 note=76 velocity=33 time=1\n",
      "note_on channel=0 note=69 velocity=33 time=0\n",
      "note_on channel=0 note=76 velocity=0 time=1439\n",
      "note_on channel=0 note=69 velocity=0 time=0\n",
      "note_on channel=0 note=77 velocity=33 time=1\n",
      "note_on channel=0 note=69 velocity=33 time=0\n",
      "note_on channel=0 note=77 velocity=0 time=1439\n",
      "note_on channel=0 note=69 velocity=0 time=0\n",
      "note_on channel=0 note=72 velocity=33 time=1\n",
      "note_on channel=0 note=69 velocity=33 time=0\n",
      "note_on channel=0 note=63 velocity=33 time=0\n",
      "note_on channel=0 note=72 velocity=0 time=1439\n",
      "note_on channel=0 note=69 velocity=0 time=0\n",
      "note_on channel=0 note=63 velocity=0 time=0\n",
      "note_on channel=0 note=67 velocity=33 time=1\n",
      "note_on channel=0 note=62 velocity=33 time=0\n",
      "note_on channel=0 note=59 velocity=33 time=0\n",
      "note_on channel=0 note=67 velocity=0 time=1439\n",
      "note_on channel=0 note=62 velocity=0 time=0\n",
      "note_on channel=0 note=59 velocity=0 time=0\n",
      "note_on channel=0 note=67 velocity=33 time=1\n",
      "note_on channel=0 note=62 velocity=33 time=0\n",
      "note_on channel=0 note=57 velocity=33 time=0\n",
      "note_on channel=0 note=67 velocity=0 time=1439\n",
      "note_on channel=0 note=62 velocity=0 time=0\n",
      "note_on channel=0 note=57 velocity=0 time=0\n",
      "note_on channel=0 note=62 velocity=33 time=1\n",
      "note_on channel=0 note=59 velocity=33 time=0\n",
      "note_on channel=0 note=55 velocity=33 time=0\n",
      "note_on channel=0 note=62 velocity=0 time=1439\n",
      "note_on channel=0 note=59 velocity=0 time=0\n",
      "note_on channel=0 note=55 velocity=0 time=0\n",
      "note_on channel=0 note=62 velocity=33 time=1\n",
      "note_on channel=0 note=59 velocity=33 time=0\n",
      "note_on channel=0 note=53 velocity=33 time=0\n",
      "note_on channel=0 note=62 velocity=0 time=1439\n",
      "note_on channel=0 note=59 velocity=0 time=0\n",
      "note_on channel=0 note=53 velocity=0 time=0\n",
      "note_on channel=0 note=76 velocity=33 time=1\n",
      "note_on channel=0 note=72 velocity=33 time=0\n",
      "note_on channel=0 note=76 velocity=0 time=1439\n",
      "note_on channel=0 note=72 velocity=0 time=0\n",
      "note_on channel=0 note=72 velocity=33 time=1\n",
      "note_on channel=0 note=72 velocity=0 time=1439\n",
      "note_on channel=0 note=72 velocity=33 time=1\n",
      "note_on channel=0 note=70 velocity=33 time=0\n",
      "note_on channel=0 note=67 velocity=33 time=0\n",
      "note_on channel=0 note=72 velocity=0 time=1439\n",
      "note_on channel=0 note=70 velocity=0 time=0\n",
      "note_on channel=0 note=67 velocity=0 time=0\n",
      "note_on channel=0 note=70 velocity=33 time=1\n",
      "note_on channel=0 note=67 velocity=33 time=0\n",
      "note_on channel=0 note=70 velocity=0 time=1439\n",
      "note_on channel=0 note=67 velocity=0 time=0\n",
      "note_on channel=0 note=69 velocity=33 time=1\n",
      "note_on channel=0 note=65 velocity=33 time=0\n",
      "note_on channel=0 note=60 velocity=33 time=0\n",
      "note_on channel=0 note=69 velocity=0 time=2879\n",
      "note_on channel=0 note=65 velocity=0 time=0\n",
      "note_on channel=0 note=60 velocity=0 time=0\n",
      "note_on channel=0 note=64 velocity=33 time=1\n",
      "note_on channel=0 note=60 velocity=33 time=0\n",
      "note_on channel=0 note=55 velocity=33 time=0\n",
      "note_on channel=0 note=64 velocity=0 time=2879\n",
      "note_on channel=0 note=60 velocity=0 time=0\n",
      "note_on channel=0 note=55 velocity=0 time=0\n",
      "note_on channel=0 note=60 velocity=49 time=1\n",
      "note_on channel=0 note=57 velocity=49 time=0\n",
      "note_on channel=0 note=53 velocity=49 time=0\n",
      "note_on channel=0 note=60 velocity=0 time=1439\n",
      "note_on channel=0 note=57 velocity=0 time=0\n",
      "note_on channel=0 note=53 velocity=0 time=0\n",
      "note_on channel=0 note=64 velocity=49 time=1\n",
      "note_on channel=0 note=60 velocity=49 time=0\n",
      "note_on channel=0 note=57 velocity=49 time=0\n",
      "note_on channel=0 note=53 velocity=49 time=0\n",
      "note_on channel=0 note=64 velocity=0 time=1439\n",
      "note_on channel=0 note=60 velocity=0 time=0\n",
      "note_on channel=0 note=57 velocity=0 time=0\n",
      "note_on channel=0 note=53 velocity=0 time=0\n",
      "note_on channel=0 note=60 velocity=49 time=1\n",
      "note_on channel=0 note=57 velocity=49 time=0\n",
      "note_on channel=0 note=53 velocity=49 time=0\n",
      "note_on channel=0 note=60 velocity=0 time=1439\n",
      "note_on channel=0 note=57 velocity=0 time=0\n",
      "note_on channel=0 note=53 velocity=0 time=0\n",
      "note_on channel=0 note=64 velocity=49 time=1\n",
      "note_on channel=0 note=60 velocity=49 time=0\n",
      "note_on channel=0 note=57 velocity=49 time=0\n",
      "note_on channel=0 note=53 velocity=49 time=0\n",
      "note_on channel=0 note=64 velocity=0 time=1439\n",
      "note_on channel=0 note=60 velocity=0 time=0\n",
      "note_on channel=0 note=57 velocity=0 time=0\n",
      "note_on channel=0 note=53 velocity=0 time=0\n",
      "note_on channel=0 note=53 velocity=33 time=1\n",
      "note_on channel=0 note=48 velocity=33 time=0\n",
      "note_on channel=0 note=53 velocity=0 time=1439\n",
      "note_on channel=0 note=48 velocity=0 time=0\n",
      "<meta message end_of_track time=1>\n"
     ]
    }
   ],
   "source": [
    "for i, track in enumerate(mid.tracks):\n",
    "    print('Track {}: {}'.format(i, track.name))\n",
    "    tempo = 0\n",
    "    for msg in track:\n",
    "        print(msg)\n",
    "#         if msg.is_meta:\n",
    "#             if msg.type == 'set_tempo':\n",
    "#                 tempo = msg.dict()['tempo']\n",
    "#                 print(tempo)"
   ]
  },
  {
   "cell_type": "code",
   "execution_count": 17,
   "metadata": {},
   "outputs": [
    {
     "data": {
      "text/plain": [
       "21.05439330543933"
      ]
     },
     "execution_count": 17,
     "metadata": {},
     "output_type": "execute_result"
    }
   ],
   "source": [
    "float(5032)/239"
   ]
  },
  {
   "cell_type": "code",
   "execution_count": null,
   "metadata": {},
   "outputs": [],
   "source": []
  }
 ],
 "metadata": {
  "kernelspec": {
   "display_name": "Python [conda root]",
   "language": "python",
   "name": "conda-root-py"
  },
  "language_info": {
   "codemirror_mode": {
    "name": "ipython",
    "version": 2
   },
   "file_extension": ".py",
   "mimetype": "text/x-python",
   "name": "python",
   "nbconvert_exporter": "python",
   "pygments_lexer": "ipython2",
   "version": "2.7.15"
  }
 },
 "nbformat": 4,
 "nbformat_minor": 2
}
